<?xml version="1.0" encoding="UTF-8"?>
<svg version="1.1" xmlns="http://www.w3.org/2000/svg" width="364" height="270">
<path d="M0 0 C120.12 0 240.24 0 364 0 C364 89.1 364 178.2 364 270 C243.88 270 123.76 270 0 270 C0 180.9 0 91.8 0 0 Z " fill="#DD270E" transform="translate(0,0)"/>
<path d="M0 0 C2.73631454 1.36815727 2.76457891 2.64885908 3.7265625 5.515625 C4.0359375 6.43730469 4.3453125 7.35898437 4.6640625 8.30859375 C4.98117188 9.27925781 5.29828125 10.24992187 5.625 11.25 C6.11226562 12.68279297 6.11226562 12.68279297 6.609375 14.14453125 C6.91617188 15.07136719 7.22296875 15.99820313 7.5390625 16.953125 C7.95986084 18.22397949 7.95986084 18.22397949 8.38916016 19.52050781 C9 22 9 22 9 27 C18.9 27 28.8 27 39 27 C36.61433006 29.38566994 34.54624853 31.11055392 31.8046875 32.99609375 C31.00675781 33.55490234 30.20882812 34.11371094 29.38671875 34.68945312 C27.70879604 35.85721427 26.02646288 37.01866294 24.33984375 38.17382812 C23.54449219 38.73392578 22.74914062 39.29402344 21.9296875 39.87109375 C21.19991699 40.37568115 20.47014648 40.88026855 19.71826172 41.40014648 C17.66915903 43.30804219 17.21280929 44.22133694 17 47 C17.51274284 49.49405609 17.51274284 49.49405609 18.46875 52.09765625 C18.79230469 53.06380859 19.11585937 54.02996094 19.44921875 55.02539062 C19.96935547 56.52875977 19.96935547 56.52875977 20.5 58.0625 C21.18520235 60.05060571 21.86266892 62.04139952 22.53125 64.03515625 C22.98854492 65.35592163 22.98854492 65.35592163 23.45507812 66.70336914 C24 69 24 69 23 72 C22.33097656 71.45859375 21.66195312 70.9171875 20.97265625 70.359375 C17.49917496 67.60249892 13.98625948 64.90895253 10.4375 62.25 C9.77814453 61.74339844 9.11878906 61.23679688 8.43945312 60.71484375 C7.79814453 60.23660156 7.15683594 59.75835937 6.49609375 59.265625 C5.63262329 58.61255371 5.63262329 58.61255371 4.75170898 57.94628906 C2.74527542 56.68313912 2.74527542 56.68313912 -1 57 C-3.15188178 58.18022137 -3.15188178 58.18022137 -5.2578125 59.84375 C-6.44310547 60.72353516 -6.44310547 60.72353516 -7.65234375 61.62109375 C-8.46832031 62.24113281 -9.28429687 62.86117187 -10.125 63.5 C-11.74952912 64.72284587 -13.37699103 65.94180848 -15.0078125 67.15625 C-16.08506592 67.97319336 -16.08506592 67.97319336 -17.18408203 68.80664062 C-19 70 -19 70 -21 70 C-21 70.66 -21 71.32 -21 72 C-21.66 72 -22.32 72 -23 72 C-20.64500307 62.43540722 -17.35051831 53.24916544 -14 44 C-14.82757813 43.62101562 -14.82757813 43.62101562 -15.671875 43.234375 C-18.3954807 41.7903156 -20.76848484 40.07923117 -23.25 38.25 C-24.21035156 37.54230469 -25.17070313 36.83460937 -26.16015625 36.10546875 C-27.09730469 35.41066406 -28.03445312 34.71585938 -29 34 C-29.82371094 33.39800781 -30.64742187 32.79601563 -31.49609375 32.17578125 C-32.21925781 31.64339844 -32.94242188 31.11101563 -33.6875 30.5625 C-34.33074219 30.08941406 -34.97398438 29.61632812 -35.63671875 29.12890625 C-36.08660156 28.75636719 -36.53648438 28.38382813 -37 28 C-37 27.67 -37 27.34 -37 27 C-27.43 27 -17.86 27 -8 27 C-7.34 24.03 -6.68 21.06 -6 18 C-5.53012779 16.38464835 -5.0347824 14.77599183 -4.4921875 13.18359375 C-4.22792969 12.40048828 -3.96367188 11.61738281 -3.69140625 10.81054688 C-3.42199219 10.02744141 -3.15257812 9.24433594 -2.875 8.4375 C-2.59785156 7.61958984 -2.32070312 6.80167969 -2.03515625 5.95898438 C-1.36094863 3.97123432 -0.68107796 1.98540651 0 0 Z " fill="#FBDC03" transform="translate(67,28)"/>
<path d="M0 0 C2.73631454 1.36815727 2.76457891 2.64885908 3.7265625 5.515625 C4.0359375 6.43730469 4.3453125 7.35898437 4.6640625 8.30859375 C4.98117188 9.27925781 5.29828125 10.24992187 5.625 11.25 C6.11226562 12.68279297 6.11226562 12.68279297 6.609375 14.14453125 C6.91617188 15.07136719 7.22296875 15.99820313 7.5390625 16.953125 C7.95986084 18.22397949 7.95986084 18.22397949 8.38916016 19.52050781 C9 22 9 22 9 27 C18.9 27 28.8 27 39 27 C36.61433006 29.38566994 34.54624853 31.11055392 31.8046875 32.99609375 C31.00675781 33.55490234 30.20882812 34.11371094 29.38671875 34.68945312 C27.70879604 35.85721427 26.02646288 37.01866294 24.33984375 38.17382812 C23.54449219 38.73392578 22.74914062 39.29402344 21.9296875 39.87109375 C21.19991699 40.37568115 20.47014648 40.88026855 19.71826172 41.40014648 C17.66915903 43.30804219 17.21280929 44.22133694 17 47 C17.51274284 49.49405609 17.51274284 49.49405609 18.46875 52.09765625 C18.79230469 53.06380859 19.11585937 54.02996094 19.44921875 55.02539062 C19.96935547 56.52875977 19.96935547 56.52875977 20.5 58.0625 C21.18520235 60.05060571 21.86266892 62.04139952 22.53125 64.03515625 C22.98854492 65.35592163 22.98854492 65.35592163 23.45507812 66.70336914 C24 69 24 69 23 72 C22.33097656 71.45859375 21.66195312 70.9171875 20.97265625 70.359375 C17.49917496 67.60249892 13.98625948 64.90895253 10.4375 62.25 C9.77814453 61.74339844 9.11878906 61.23679688 8.43945312 60.71484375 C7.79814453 60.23660156 7.15683594 59.75835937 6.49609375 59.265625 C5.63262329 58.61255371 5.63262329 58.61255371 4.75170898 57.94628906 C2.74527542 56.68313912 2.74527542 56.68313912 -1 57 C-3.15188178 58.18022137 -3.15188178 58.18022137 -5.2578125 59.84375 C-6.44310547 60.72353516 -6.44310547 60.72353516 -7.65234375 61.62109375 C-8.46832031 62.24113281 -9.28429687 62.86117187 -10.125 63.5 C-11.74952912 64.72284587 -13.37699103 65.94180848 -15.0078125 67.15625 C-16.08506592 67.97319336 -16.08506592 67.97319336 -17.18408203 68.80664062 C-19 70 -19 70 -21 70 C-21 70.66 -21 71.32 -21 72 C-21.66 72 -22.32 72 -23 72 C-20.64500307 62.43540722 -17.35051831 53.24916544 -14 44 C-14.82757813 43.62101562 -14.82757813 43.62101562 -15.671875 43.234375 C-18.3954807 41.7903156 -20.76848484 40.07923117 -23.25 38.25 C-24.21035156 37.54230469 -25.17070313 36.83460937 -26.16015625 36.10546875 C-27.09730469 35.41066406 -28.03445312 34.71585938 -29 34 C-29.82371094 33.39800781 -30.64742187 32.79601563 -31.49609375 32.17578125 C-32.21925781 31.64339844 -32.94242188 31.11101563 -33.6875 30.5625 C-34.33074219 30.08941406 -34.97398438 29.61632812 -35.63671875 29.12890625 C-36.08660156 28.75636719 -36.53648438 28.38382813 -37 28 C-37 27.67 -37 27.34 -37 27 C-27.43 27 -17.86 27 -8 27 C-7.34 24.03 -6.68 21.06 -6 18 C-5.53012779 16.38464835 -5.0347824 14.77599183 -4.4921875 13.18359375 C-4.22792969 12.40048828 -3.96367188 11.61738281 -3.69140625 10.81054688 C-3.42199219 10.02744141 -3.15257812 9.24433594 -2.875 8.4375 C-2.59785156 7.61958984 -2.32070312 6.80167969 -2.03515625 5.95898438 C-1.36094863 3.97123432 -0.68107796 1.98540651 0 0 Z M0 7 C-2.21854707 11.62197306 -3.38281159 14.76824163 -3 20 C-3.66 20 -4.32 20 -5 20 C-5 22.31 -5 24.62 -5 27 C-5.66 27 -6.32 27 -7 27 C-7.33 27.66 -7.66 28.32 -8 29 C-10.50390625 29.4140625 -10.50390625 29.4140625 -13.5625 29.625 C-14.57441406 29.69976562 -15.58632813 29.77453125 -16.62890625 29.8515625 C-17.41136719 29.90054688 -18.19382812 29.94953125 -19 30 C-19 31.32 -19 32.64 -19 34 C-20.32 33.67 -21.64 33.34 -23 33 C-23.04289755 34.93109581 -23.04289755 34.93109581 -22 37 C-18.51202512 38.79271391 -18.51202512 38.79271391 -15 40 C-15 40.66 -15 41.32 -15 42 C-14.34 42.33 -13.68 42.66 -13 43 C-12.59270772 45.32156597 -12.25561323 47.6568787 -12 50 C-12.66 50 -13.32 50 -14 50 C-15.76462683 53.08809695 -16 54.23312136 -16 58 C-16.66 58 -17.32 58 -18 58 C-18 59.98 -18 61.96 -18 64 C-15.06556598 63.73343428 -15.06556598 63.73343428 -12 63 C-11.34 62.01 -10.68 61.02 -10 60 C-8.03247172 58.93753473 -6.03412421 57.92862192 -4 57 C-4.495 54.525 -4.495 54.525 -5 52 C-4.01 52.66 -3.02 53.32 -2 54 C0.33199388 54.07905064 2.66832622 54.08798769 5 54 C5.66 55.32 6.32 56.64 7 58 C8.98 57.505 8.98 57.505 11 57 C11 55.35 11 53.7 11 52 C11.66 52 12.32 52 13 52 C13.33 52.99 13.66 53.98 14 55 C14.66 55 15.32 55 16 55 C15.67 50.38 15.34 45.76 15 41 C17.475 40.505 17.475 40.505 20 40 C20 39.34 20 38.68 20 38 C20.598125 37.71125 21.19625 37.4225 21.8125 37.125 C24.19327792 35.95257974 24.19327792 35.95257974 27 34 C27 33.34 27 32.68 27 32 C27.804375 31.87625 28.60875 31.7525 29.4375 31.625 C30.283125 31.41875 31.12875 31.2125 32 31 C32.33 30.34 32.66 29.68 33 29 C30.33821779 27.6691089 28.31260604 27.88731007 25.3359375 27.90234375 C23.65371094 27.90717773 23.65371094 27.90717773 21.9375 27.91210938 C20.761875 27.92048828 19.58625 27.92886719 18.375 27.9375 C17.19164062 27.94201172 16.00828125 27.94652344 14.7890625 27.95117188 C11.85932493 27.96298533 8.92968728 27.97945742 6 28 C6.01804687 26.89398438 6.03609375 25.78796875 6.0546875 24.6484375 C5.99989478 20.99298039 5.41020957 19.290489 4 16 C3.25285498 13.01646819 2.61701714 10.01288157 2 7 C1.34 7 0.68 7 0 7 Z " fill="#FBD01A" transform="translate(67,28)"/>
<path d="M0 0 C0.86625 0.86625 1.7325 1.7325 2.625 2.625 C4.21782896 4.04997231 4.21782896 4.04997231 6 5 C9.21316523 4.51237739 9.21316523 4.51237739 12 3 C12.99 2.67 13.98 2.34 15 2 C14.690625 2.721875 14.38125 3.44375 14.0625 4.1875 C12.5440265 7.99566824 12.5440265 7.99566824 12 12 C14.333492 14.83411155 14.333492 14.83411155 17 17 C13.7 16.67 10.4 16.34 7 16 C6.71125 16.94875 6.4225 17.8975 6.125 18.875 C5 22 5 22 3 24 C2.34 21.03 1.68 18.06 1 15 C-1.64 14.67 -4.28 14.34 -7 14 C-7 13.34 -7 12.68 -7 12 C-1.25 9 -1.25 9 1 9 C0.67 6.03 0.34 3.06 0 0 Z " fill="#F9D80B" transform="translate(157,43)"/>
<path d="M0 0 C0.33 0 0.66 0 1 0 C1 2.97 1 5.94 1 9 C3.64 9.66 6.28 10.32 9 11 C9 11.66 9 12.32 9 13 C6.36 13.66 3.72 14.32 1 15 C0.67 17.97 0.34 20.94 0 24 C-3 21 -3 21 -5 18 C-9.95 18.495 -9.95 18.495 -15 19 C-13.7315625 17.63875 -13.7315625 17.63875 -12.4375 16.25 C-10.37584963 13.91452196 -10.37584963 13.91452196 -10.0625 10.9375 C-10.371875 10.298125 -10.68125 9.65875 -11 9 C-11.5259375 7.63875 -11.5259375 7.63875 -12.0625 6.25 C-12.371875 5.5075 -12.68125 4.765 -13 4 C-12.39671875 4.13019531 -11.7934375 4.26039062 -11.171875 4.39453125 C-8.70839107 4.8196809 -6.50003547 5.12069137 -4 5 C-1.43965247 2.71924815 -1.43965247 2.71924815 0 0 Z " fill="#FCBF2F" transform="translate(139,110)"/>
<path d="M0 0 C0.66 0 1.32 0 2 0 C2.66 2.64 3.32 5.28 4 8 C7.3 8 10.6 8 14 8 C10.25 11.875 10.25 11.875 8 13 C8.33 15.97 8.66 18.94 9 22 C7.8553125 21.5359375 7.8553125 21.5359375 6.6875 21.0625 C4.81210323 20.32106407 2.91315348 19.63771783 1 19 C-0.70250393 20.28725907 -2.37064759 21.62131719 -4 23 C-4.66 23 -5.32 23 -6 23 C-5.505 18.545 -5.505 18.545 -5 14 C-5.99 13.360625 -6.98 12.72125 -8 12.0625 C-8.99 11.381875 -9.98 10.70125 -11 10 C-11 9.67 -11 9.34 -11 9 C-7.7 9 -4.4 9 -1 9 C-0.67 6.03 -0.34 3.06 0 0 Z " fill="#F3D904" transform="translate(161,82)"/>
<path d="M0 0 C0.33 0 0.66 0 1 0 C1 2.97 1 5.94 1 9 C3.64 9.66 6.28 10.32 9 11 C9 11.66 9 12.32 9 13 C4.545 13.495 4.545 13.495 0 14 C0 17.3 0 20.6 0 24 C-3 21 -3 21 -5 17 C-9.95 17.495 -9.95 17.495 -15 18 C-13.7260411 15.96166576 -12.38938077 13.96147874 -11 12 C-10.34 12 -9.68 12 -9 12 C-9.7115625 10.63875 -9.7115625 10.63875 -10.4375 9.25 C-12 6 -12 6 -13 2 C-10.03 2.99 -7.06 3.98 -4 5 C-3.360625 4.175 -2.72125 3.35 -2.0625 2.5 C-1.381875 1.675 -0.70125 0.85 0 0 Z " fill="#FAD90C" transform="translate(139,16)"/>
<path d="M0 0 C2 3 2 3 2 5 C2.66 5 3.32 5 4 5 C4.16435547 6.08667969 4.16435547 6.08667969 4.33203125 7.1953125 C5.23384882 12.69420011 6.34512109 17.05227112 9 22 C9 23.32 9 24.64 9 26 C10.04341553 25.99214478 10.04341553 25.99214478 11.10791016 25.98413086 C14.28026413 25.96325663 17.45260361 25.95030668 20.625 25.9375 C21.71941406 25.92912109 22.81382813 25.92074219 23.94140625 25.91210938 C25.53662109 25.90727539 25.53662109 25.90727539 27.1640625 25.90234375 C28.62513428 25.89448853 28.62513428 25.89448853 30.11572266 25.88647461 C33.14875321 26.00585494 36.01915268 26.44133276 39 27 C39 28.32 39 29.64 39 31 C37.88625 31.433125 36.7725 31.86625 35.625 32.3125 C31.82487666 33.69911119 31.82487666 33.69911119 30 37 C28.35443434 38.03435556 26.6829392 39.02763513 25 40 C23.16662948 41.31575945 21.35464142 42.65582385 19.55078125 44.01171875 C18 45 18 45 16 45 C16.33 45.886875 16.66 46.77375 17 47.6875 C17.91222143 50.70923347 18.18330958 52.88373706 18 56 C17.34 55.67 16.68 55.34 16 55 C15.3671875 52.71484375 15.3671875 52.71484375 14.875 49.9375 C14.62363281 48.55884766 14.62363281 48.55884766 14.3671875 47.15234375 C14.24601562 46.44207031 14.12484375 45.73179688 14 45 C29.66666667 32.16666667 29.66666667 32.16666667 36 29 C26.43 28.67 16.86 28.34 7 28 C6.1028125 24.8134375 6.1028125 24.8134375 5.1875 21.5625 C3.98789339 17.31136634 2.72538753 13.10246958 1.25 8.9375 C0.18642933 5.85601958 -0.31901925 3.2965322 0 0 Z " fill="#BC4100" transform="translate(69,27)"/>
<path d="M0 0 C8.25 0 16.5 0 25 0 C24.67 0.66 24.34 1.32 24 2 C20.37 2 16.74 2 13 2 C13 3.32 13 4.64 13 6 C11.68 5.67 10.36 5.34 9 5 C9.33 6.32 9.66 7.64 10 9 C14.455 9.99 14.455 9.99 19 11 C18.01 11.495 18.01 11.495 17 12 C17 12.66 17 13.32 17 14 C17.99 14.33 18.98 14.66 20 15 C20 17.31 20 19.62 20 22 C19.34 22 18.68 22 18 22 C17.34 24.64 16.68 27.28 16 30 C15.34 30 14.68 30 14 30 C14.63156995 24.94744036 16.13459373 20.70406799 18 16 C17.45472656 15.74734375 16.90945312 15.4946875 16.34765625 15.234375 C13.54994327 13.76336452 11.02476226 12.06636371 8.4375 10.25 C7.48746094 9.59515625 6.53742187 8.9403125 5.55859375 8.265625 C3 6 3 6 0 0 Z " fill="#FCD80E" transform="translate(35,56)"/>
<path d="M0 0 C2.60868369 1.30434185 2.62929776 2.24467044 3.54296875 4.96484375 C3.94612305 6.16463867 3.94612305 6.16463867 4.35742188 7.38867188 C4.63134766 8.22978516 4.90527344 9.07089844 5.1875 9.9375 C5.47302734 10.77474609 5.75855469 11.61199219 6.05273438 12.47460938 C6.31763672 13.27576172 6.58253906 14.07691406 6.85546875 14.90234375 C7.09934326 15.63960693 7.34321777 16.37687012 7.59448242 17.13647461 C8 19 8 19 7 21 C4.81385576 18.81385576 4.31743465 17.46120051 3.375 14.5625 C2.98441406 13.38880859 2.98441406 13.38880859 2.5859375 12.19140625 C2 10 2 10 2 7 C1.34 7 0.68 7 0 7 C-0.99 11.29 -1.98 15.58 -3 20 C-3.66 20 -4.32 20 -5 20 C-5 22.31 -5 24.62 -5 27 C-7.57211322 28.28605661 -9.56906966 28.21043941 -12.4453125 28.31640625 C-13.52167969 28.35830078 -14.59804688 28.40019531 -15.70703125 28.44335938 C-16.83496094 28.48267578 -17.96289062 28.52199219 -19.125 28.5625 C-20.26066406 28.60568359 -21.39632812 28.64886719 -22.56640625 28.69335938 C-25.37747768 28.7996604 -28.18863945 28.90169405 -31 29 C-30.67 29.99 -30.34 30.98 -30 32 C-33.65316671 30.75023244 -34.78065836 30.32901247 -37 27 C-27.43 27 -17.86 27 -8 27 C-7.34 24.03 -6.68 21.06 -6 18 C-5.53012779 16.38464835 -5.0347824 14.77599183 -4.4921875 13.18359375 C-4.22792969 12.40048828 -3.96367188 11.61738281 -3.69140625 10.81054688 C-3.42199219 10.02744141 -3.15257812 9.24433594 -2.875 8.4375 C-2.59785156 7.61958984 -2.32070312 6.80167969 -2.03515625 5.95898438 C-1.36094863 3.97123432 -0.68107796 1.98540651 0 0 Z " fill="#FBBA29" transform="translate(67,28)"/>
<path d="M0 0 C0 3.52248586 -0.87666297 6.06586828 -1.96875 9.41796875 C-2.37480469 10.67158203 -2.78085938 11.92519531 -3.19921875 13.21679688 C-3.63271818 14.54039548 -4.06631316 15.86396279 -4.5 17.1875 C-4.93399455 18.52265624 -5.36759304 19.8579413 -5.80078125 21.19335938 C-6.86328509 24.46351009 -7.93114093 27.73192099 -9 31 C-18.24 31 -27.48 31 -37 31 C-37 30.01 -37 29.02 -37 28 C-35.72125 28.02320312 -34.4425 28.04640625 -33.125 28.0703125 C-31.41667255 28.08908533 -29.70833873 28.10728389 -28 28.125 C-27.16082031 28.14175781 -26.32164063 28.15851562 -25.45703125 28.17578125 C-22.96221765 28.19512089 -20.49168918 28.12144789 -18 28 C-17.25540527 27.98936523 -16.51081055 27.97873047 -15.74365234 27.96777344 C-13.33510774 27.70845216 -11.99489137 27.39254151 -10 26 C-7.86261003 22.19681777 -6.76971104 18.19244379 -5.625 14 C-4.97584908 11.79034119 -4.32241169 9.58193573 -3.6640625 7.375 C-3.39029785 6.39273437 -3.1165332 5.41046875 -2.83447266 4.3984375 C-2 2 -2 2 0 0 Z " fill="#B93300" transform="translate(68,24)"/>
<path d="M0 0 C1.32 0.66 2.64 1.32 4 2 C4 3.65 4 5.3 4 7 C3.34 7 2.68 7 2 7 C2 8.32 2 9.64 2 11 C4.64 11.33 7.28 11.66 10 12 C11.125 16.75 11.125 16.75 10 19 C7.93359375 19.4140625 7.93359375 19.4140625 5.4375 19.625 C4.61121094 19.69976562 3.78492188 19.77453125 2.93359375 19.8515625 C1.97646484 19.92503906 1.97646484 19.92503906 1 20 C1.33 20.66 1.66 21.32 2 22 C2.039992 23.99960012 2.04346799 26.00047242 2 28 C1.34 28.33 0.68 28.66 0 29 C-1.28317892 25.15046324 -1.06643637 22.05261865 -1 18 C2.37097383 16.50178941 4.20442119 16 8 16 C8 15.34 8 14.68 8 14 C7.05125 13.855625 6.1025 13.71125 5.125 13.5625 C2 13 2 13 0 12 C0 8.04 0 4.08 0 0 Z " fill="#C54202" transform="translate(140,107)"/>
<path d="M0 0 C3.41943506 0.42269769 6.72174346 0.91991217 10 2 C11.625 4.625 11.625 4.625 12 7 C11.4225 6.67 10.845 6.34 10.25 6 C7.80116138 4.72924102 7.80116138 4.72924102 4 5 C1.84811822 6.18022137 1.84811822 6.18022137 -0.2578125 7.84375 C-1.04800781 8.43027344 -1.83820312 9.01679687 -2.65234375 9.62109375 C-3.46832031 10.24113281 -4.28429688 10.86117187 -5.125 11.5 C-6.74952912 12.72284587 -8.37699103 13.94180848 -10.0078125 15.15625 C-10.72598145 15.70087891 -11.44415039 16.24550781 -12.18408203 16.80664062 C-14 18 -14 18 -16 18 C-16 18.66 -16 19.32 -16 20 C-16.66 20 -17.32 20 -18 20 C-17.54857225 18.22739369 -17.08859477 16.4569632 -16.625 14.6875 C-16.36976562 13.70136719 -16.11453125 12.71523437 -15.8515625 11.69921875 C-15 9 -15 9 -13 6 C-13 7.98 -13 9.96 -13 12 C-8.17557816 10.73053486 -8.17557816 10.73053486 -5 7 C-1.875 5.8125 -1.875 5.8125 1 5 C0.67 3.35 0.34 1.7 0 0 Z " fill="#FCCF1F" transform="translate(62,80)"/>
<path d="M0 0 C2.76223278 2.76223278 2.57856291 5.20706617 3 9 C-2.75 12 -2.75 12 -5 12 C-5 12.66 -5 13.32 -5 14 C-3.700625 13.979375 -2.40125 13.95875 -1.0625 13.9375 C0.29165633 13.91600546 1.64756083 13.92851801 3 14 C4 15 4 15 4.0625 18.0625 C4.041875 19.031875 4.02125 20.00125 4 21 C2 18 2 18 2 16 C1.01 16 0.02 16 -1 16 C-1 17.65 -1 19.3 -1 21 C-1.66 21 -2.32 21 -3 21 C-3 20.34 -3 19.68 -3 19 C-3.66 18.67 -4.32 18.34 -5 18 C-5 17.01 -5 16.02 -5 15 C-6.98 15.33 -8.96 15.66 -11 16 C-11 14.68 -11 13.36 -11 12 C-8.36 11.34 -5.72 10.68 -3 10 C-3 9.34 -3 8.68 -3 8 C-2.01 8 -1.02 8 0 8 C0 5.36 0 2.72 0 0 Z " fill="#DD2905" transform="translate(155,43)"/>
<path d="M0 0 C5.89437788 3.08115207 11.05754344 6.95005222 16.328125 10.9765625 C18.1760229 12.37599395 20.07130544 13.71420362 22 15 C20.5931595 20.95516951 18.84615315 26.70914816 16.875 32.5 C16.59785156 33.32242188 16.32070313 34.14484375 16.03515625 34.9921875 C15.3595435 36.99572877 14.68016663 38.99800011 14 41 C13.01 41 12.02 41 11 41 C11.84758883 38.4572335 12.82090255 36.08456071 13.875 33.625 C16.32386412 27.58327685 17.68224903 21.36912968 19 15 C18.34 15 17.68 15 17 15 C15.64499081 13.68870078 14.31328657 12.35308313 13 11 C10.08235 9.0549 8.37462715 8.54723683 5 8 C4.67 7.01 4.34 6.02 4 5 C2.67151309 3.99357052 1.33849671 2.99307821 0 2 C0 1.34 0 0.68 0 0 Z " fill="#BE3902" transform="translate(31,57)"/>
<path d="M0 0 C3.35435922 1.38801071 5.11290303 2.88629 7 6 C7 9 7 9 4.5 11.6875 C3.675 12.450625 2.85 13.21375 2 14 C3.65 14 5.3 14 7 14 C6.67 16.31 6.34 18.62 6 21 C5.34 20.01 4.68 19.02 4 18 C1.69855891 16.92863949 -0.6340213 15.92010283 -3 15 C-3 14.34 -3 13.68 -3 13 C-2.34 12.67 -1.68 12.34 -1 12 C0.24769838 9.85118612 1 8.50320403 1 6 C0.34 5.67 -0.32 5.34 -1 5 C-0.67 3.35 -0.34 1.7 0 0 Z " fill="#CF2D06" transform="translate(123,19)"/>
<path d="M0 0 C3.9175192 1.9587596 7.33857098 4.26341794 10.875 6.8125 C11.77412109 7.45155273 11.77412109 7.45155273 12.69140625 8.10351562 C16.60870311 10.91190307 20.33049208 13.87474631 24 17 C23.67 17.66 23.34 18.32 23 19 C19.4952714 18.44225824 18.19203299 17.42111811 16.0625 14.625 C13.6191235 11.61823844 11.46346846 9.81832094 8 8 C7.030625 7.236875 6.06125 6.47375 5.0625 5.6875 C2.13412379 3.67204674 2.13412379 3.67204674 -1 4.4375 C-3.49411836 5.73651998 -5.11769773 6.86811826 -7.1875 8.6875 C-8.115625 9.450625 -9.04375 10.21375 -10 11 C-10.99 10.67 -11.98 10.34 -13 10 C-8.71 6.7 -4.42 3.4 0 0 Z " fill="#BF4100" transform="translate(67,83)"/>
<path d="M0 0 C1.32 0.33 2.64 0.66 4 1 C4 1.99 4 2.98 4 4 C6.97 4.33 9.94 4.66 13 5 C12.67 6.65 12.34 8.3 12 10 C11.01 10.33 10.02 10.66 9 11 C9 14.3 9 17.6 9 21 C6 19 6 19 5 15.625 C5 14.42875 5 13.2325 5 12 C7.4375 9.5625 7.4375 9.5625 10 8 C7.36 7.67 4.72 7.34 2 7 C1.34 4.69 0.68 2.38 0 0 Z " fill="#D52E07" transform="translate(163,83)"/>
<path d="M0 0 C1.32 0.33 2.64 0.66 4 1 C4 1.66 4 2.32 4 3 C8.30322683 4.46939453 12.62297367 5.77443263 17 7 C16.01 7.495 16.01 7.495 15 8 C15 8.66 15 9.32 15 10 C15.99 10.33 16.98 10.66 18 11 C18 13.31 18 15.62 18 18 C17.34 18 16.68 18 16 18 C15.34 20.64 14.68 23.28 14 26 C13.34 26 12.68 26 12 26 C12.63156995 20.94744036 14.13459373 16.70406799 16 12 C15.45730469 11.7525 14.91460937 11.505 14.35546875 11.25 C11.4829129 9.72559225 8.94337383 7.91080823 6.3125 6 C5.33925781 5.29875 4.36601563 4.5975 3.36328125 3.875 C1 2 1 2 0 0 Z " fill="#FBC322" transform="translate(37,60)"/>
<path d="M0 0 C2 3 2 3 2 5 C2.66 5 3.32 5 4 5 C4.16435547 6.08667969 4.16435547 6.08667969 4.33203125 7.1953125 C5.23384882 12.69420011 6.34512109 17.05227112 9 22 C9 23.32 9 24.64 9 26 C16.92 26 24.84 26 33 26 C33 26.33 33 26.66 33 27 C24.42 27.33 15.84 27.66 7 28 C6.1028125 24.8134375 6.1028125 24.8134375 5.1875 21.5625 C3.98789339 17.31136634 2.72538753 13.10246958 1.25 8.9375 C0.18642933 5.85601958 -0.31901925 3.2965322 0 0 Z " fill="#C63601" transform="translate(69,27)"/>
<path d="M0 0 C0.66 0 1.32 0 2 0 C2.66 2.64 3.32 5.28 4 8 C7.3 8 10.6 8 14 8 C10.25 11.875 10.25 11.875 8 13 C8.33 15.97 8.66 18.94 9 22 C6.525 21.01 6.525 21.01 4 20 C4.75 13.25 4.75 13.25 7 11 C6.05125 10.5875 5.1025 10.175 4.125 9.75 C1 8 1 8 -0.4375 6.0625 C-1.09394201 3.65554596 -0.83051911 2.32545352 0 0 Z " fill="#FBBE2F" transform="translate(161,82)"/>
<path d="M0 0 C0.66 0.33 1.32 0.66 2 1 C2.37400786 3.32716 2.70764733 5.66117862 3 8 C4.18180682 9.38645369 4.18180682 9.38645369 7.5 9.4375 C8.655 9.623125 9.81 9.80875 11 10 C11.33 10.66 11.66 11.32 12 12 C9.22920113 15.80984844 5.37131855 16.06840752 1 17 C1 18.98 1 20.96 1 23 C0.34 23 -0.32 23 -1 23 C-1 20.36 -1 17.72 -1 15 C3.455 14.505 3.455 14.505 8 14 C8 13.34 8 12.68 8 12 C7.05125 11.855625 6.1025 11.71125 5.125 11.5625 C2 11 2 11 0 10 C0 6.7 0 3.4 0 0 Z " fill="#C33E00" transform="translate(140,15)"/>
<path d="M0 0 C0.33 0 0.66 0 1 0 C1 2.31 1 4.62 1 7 C0.67 6.34 0.34 5.68 0 5 C-0.99 5.66 -1.98 6.32 -3 7 C-5.6875 7.125 -5.6875 7.125 -8 7 C-7.979375 7.969375 -7.95875 8.93875 -7.9375 9.9375 C-8 13 -8 13 -9 14 C-8.01 14.66 -7.02 15.32 -6 16 C-10.43076923 18.09230769 -10.43076923 18.09230769 -13.3125 17.625 C-14.1478125 17.315625 -14.1478125 17.315625 -15 17 C-13.71937515 15.2925002 -12.38232443 13.62626404 -11 12 C-10.34 12 -9.68 12 -9 12 C-9.7115625 10.63875 -9.7115625 10.63875 -10.4375 9.25 C-12 6 -12 6 -13 2 C-10.03 2.99 -7.06 3.98 -4 5 C-3.360625 4.175 -2.72125 3.35 -2.0625 2.5 C-1.381875 1.675 -0.70125 0.85 0 0 Z " fill="#FBB635" transform="translate(139,16)"/>
<path d="M0 0 C0.74507812 0.05671875 1.49015625 0.1134375 2.2578125 0.171875 C4.08935108 0.31276258 5.91981352 0.46751884 7.75 0.625 C8.08 1.615 8.41 2.605 8.75 3.625 C0.5 3.625 -7.75 3.625 -16.25 3.625 C-14.93 2.965 -13.61 2.305 -12.25 1.625 C-11.39148438 1.05652344 -11.39148438 1.05652344 -10.515625 0.4765625 C-7.03239451 -0.83265172 -3.63328778 -0.32096182 0 0 Z " fill="#E02313" transform="translate(98.25,49.375)"/>
<path d="M0 0 C0.86625 0.86625 1.7325 1.7325 2.625 2.625 C4.21782896 4.04997231 4.21782896 4.04997231 6 5 C9.21316523 4.51237739 9.21316523 4.51237739 12 3 C12.99 2.67 13.98 2.34 15 2 C13.92598892 4.91517292 13.22189824 6.77810176 11 9 C10.67 8.67 10.34 8.34 10 8 C9.67 9.65 9.34 11.3 9 13 C8.34 12.67 7.68 12.34 7 12 C7.33 11.01 7.66 10.02 8 9 C7.34 9 6.68 9 6 9 C6 8.34 6 7.68 6 7 C4.35 7.33 2.7 7.66 1 8 C0.67 5.36 0.34 2.72 0 0 Z " fill="#FBD918" transform="translate(157,43)"/>
<path d="M0 0 C0.66 0 1.32 0 2 0 C5 4.38461538 5 4.38461538 5 7 C4.01 7 3.02 7 2 7 C2 8.32 2 9.64 2 11 C1.01 11 0.02 11 -1 11 C-1 10.34 -1 9.68 -1 9 C-2.98 9.33 -4.96 9.66 -7 10 C-6.01 8.02 -5.02 6.04 -4 4 C-2.68 4.33 -1.36 4.66 0 5 C-0.2784375 4.0409375 -0.2784375 4.0409375 -0.5625 3.0625 C-0.706875 2.381875 -0.85125 1.70125 -1 1 C-0.67 0.67 -0.34 0.34 0 0 Z " fill="#F9DB05" transform="translate(136,116)"/>
<path d="M0 0 C0.33 0.66 0.66 1.32 1 2 C-1.64 2.33 -4.28 2.66 -7 3 C-6.154375 3.515625 -5.30875 4.03125 -4.4375 4.5625 C-3.633125 5.366875 -2.82875 6.17125 -2 7 C-2.11768752 10.41293795 -2.47017314 12.94034627 -4 16 C-4.66 15.67 -5.32 15.34 -6 15 C-6 13.68 -6 12.36 -6 11 C-5.34 11 -4.68 11 -4 11 C-4 9.68 -4 8.36 -4 7 C-7.63 6.01 -11.26 5.02 -15 4 C-14.67 3.01 -14.34 2.02 -14 1 C-9.38 0.67 -4.76 0.34 0 0 Z " fill="#C03601" transform="translate(159,89)"/>
<path d="M0 0 C3.15467773 0.76943359 4.58588104 1.32952169 6.3125 4.125 C6.539375 4.74375 6.76625 5.3625 7 6 C4.36 5.01 1.72 4.02 -1 3 C-1.33 4.65 -1.66 6.3 -2 8 C-2.66 8 -3.32 8 -4 8 C-4 9.32 -4 10.64 -4 12 C-6.97 11.505 -6.97 11.505 -10 11 C-9.34 9.35 -8.68 7.7 -8 6 C-7.01 6 -6.02 6 -5 6 C-4.731875 5.38125 -4.46375 4.7625 -4.1875 4.125 C-3 2 -3 2 0 0 Z " fill="#D7260A" transform="translate(162,100)"/>
<path d="M0 0 C0.625 1.875 0.625 1.875 1 4 C0.34 4.66 -0.32 5.32 -1 6 C-0.01 6.33 0.98 6.66 2 7 C2.33 5.35 2.66 3.7 3 2 C3.625 3.75 3.625 3.75 4 6 C3.34 7.32 2.68 8.64 2 10 C-0.97 10 -3.94 10 -7 10 C-6.34 9.67 -5.68 9.34 -5 9 C-4.34227572 5.97065509 -4.34227572 5.97065509 -4 3 C-4.99 2.67 -5.98 2.34 -7 2 C-5.02 2 -3.04 2 -1 2 C-0.67 1.34 -0.34 0.68 0 0 Z " fill="#CE2908" transform="translate(157,80)"/>
<path d="M0 0 C6.15234375 0.5859375 6.15234375 0.5859375 8 1 C8.33 1.66 8.66 2.32 9 3 C7.02 3 5.04 3 3 3 C2.9175 3.78375 2.835 4.5675 2.75 5.375 C2 8 2 8 -0.0625 9.3125 C-0.701875 9.539375 -1.34125 9.76625 -2 10 C-2.6875 8.375 -2.6875 8.375 -3 6 C-1.5625 2.75 -1.5625 2.75 0 0 Z " fill="#C83606" transform="translate(164,59)"/>
<path d="M0 0 C0.33 0 0.66 0 1 0 C1 1.98 1 3.96 1 6 C4.465 5.505 4.465 5.505 8 5 C4.87378374 8.39417765 2.43458973 10.6062718 -2 12 C-2 12.66 -2 13.32 -2 14 C-2.66 14 -3.32 14 -4 14 C-3.52188823 12.22888156 -3.0424722 10.45811517 -2.5625 8.6875 C-2.29566406 7.70136719 -2.02882812 6.71523437 -1.75390625 5.69921875 C-1.21920575 3.78482474 -0.62855462 1.88566385 0 0 Z " fill="#FAC02C" transform="translate(48,86)"/>
<path d="M0 0 C4.455 0.99 4.455 0.99 9 2 C9 2.66 9 3.32 9 4 C4.545 4.495 4.545 4.495 0 5 C0 8.3 0 11.6 0 15 C-3.80645161 11.19354839 -3.80645161 11.19354839 -4 8 C-2.2933209 5.09864553 -0.84354775 3.8956985 2 2 C1.34 1.34 0.68 0.68 0 0 Z " fill="#FEC330" transform="translate(139,25)"/>
<path d="M0 0 C1.98 0.66 3.96 1.32 6 2 C6 2.66 6 3.32 6 4 C6.5775 4.103125 7.155 4.20625 7.75 4.3125 C10.32049158 5.09792798 11.93657284 6.30504197 14 8 C13.67 5.69 13.34 3.38 13 1 C14.90318884 3.85478326 15.4619099 5.41941308 16.125 8.6875 C16.29257813 9.49574219 16.46015625 10.30398437 16.6328125 11.13671875 C16.75398438 11.75160156 16.87515625 12.36648437 17 13 C4.91349125 5.11019567 4.91349125 5.11019567 0 1 C0 0.67 0 0.34 0 0 Z " fill="#FEC636" transform="translate(74,87)"/>
<path d="M0 0 C0.33 0 0.66 0 1 0 C1 2.97 1 5.94 1 9 C0.34 8.67 -0.32 8.34 -1 8 C-1 7.34 -1 6.68 -1 6 C-1.99 6.495 -1.99 6.495 -3 7 C-3 8.32 -3 9.64 -3 11 C-3.99 11.33 -4.98 11.66 -6 12 C-6 11.34 -6 10.68 -6 10 C-6.66 10 -7.32 10 -8 10 C-8.33 9.01 -8.66 8.02 -9 7 C-7.88625 6.6596875 -7.88625 6.6596875 -6.75 6.3125 C-3.48914416 4.75618244 -2.11850413 2.87511275 0 0 Z " fill="#FAC720" transform="translate(139,110)"/>
<path d="M0 0 C0.66 0.33 1.32 0.66 2 1 C2 2.98 2 4.96 2 7 C1.34 7 0.68 7 0 7 C-0.66 8.98 -1.32 10.96 -2 13 C-3.32 13 -4.64 13 -6 13 C-6 11.68 -6 10.36 -6 9 C-5.34 9 -4.68 9 -4 9 C-4 8.34 -4 7.68 -4 7 C-3.01 6.34 -2.02 5.68 -1 5 C-0.27034634 2.43717258 -0.27034634 2.43717258 0 0 Z " fill="#DB2617" transform="translate(152,41)"/>
<path d="M0 0 C1.98 0.99 3.96 1.98 6 3 C4.3125 4.5625 4.3125 4.5625 2 6 C-0.75 5.6875 -0.75 5.6875 -3 5 C-3 5.66 -3 6.32 -3 7 C-5.91517292 5.92598892 -7.77810176 5.22189824 -10 3 C-6.7 3 -3.4 3 0 3 C0 2.01 0 1.02 0 0 Z " fill="#FED70B" transform="translate(160,88)"/>
<path d="M0 0 C1.64666203 0.1135629 3.29236082 0.24117381 4.9375 0.375 C6.31228516 0.47941406 6.31228516 0.47941406 7.71484375 0.5859375 C8.84599609 0.79089844 8.84599609 0.79089844 10 1 C10.33 1.66 10.66 2.32 11 3 C7.7 2.67 4.4 2.34 1 2 C0.566875 3.423125 0.566875 3.423125 0.125 4.875 C-1 8 -1 8 -3 10 C-3.33 7.03 -3.66 4.06 -4 1 C-3.34 1.66 -2.68 2.32 -2 3 C-1.34 2.01 -0.68 1.02 0 0 Z " fill="#FCC033" transform="translate(163,57)"/>
<path d="M0 0 C0 0.66 0 1.32 0 2 C-5.60341521 3.12256971 -11.1818301 3.32721317 -16.875 3.5625 C-17.84953125 3.60568359 -18.8240625 3.64886719 -19.828125 3.69335938 C-22.21862802 3.79882274 -24.60922444 3.90094175 -27 4 C-27 3.01 -27 2.02 -27 1 C-25.69804688 1.01160156 -24.39609375 1.02320313 -23.0546875 1.03515625 C-21.32812644 1.04453973 -19.60156382 1.05363934 -17.875 1.0625 C-17.0190625 1.07087891 -16.163125 1.07925781 -15.28125 1.08789062 C-10.11706516 1.10775287 -5.08745784 0 0 0 Z " fill="#CE2E02" transform="translate(58,51)"/>
<path d="M0 0 C-0.33 0.99 -0.66 1.98 -1 3 C-1.66 3 -2.32 3 -3 3 C-3 6.3 -3 9.6 -3 13 C-6 11 -6 11 -7 7.625 C-7 4 -7 4 -4.6875 1.5625 C-2 0 -2 0 0 0 Z " fill="#C13F03" transform="translate(175,91)"/>
<path d="M0 0 C2 3 2 3 3 5.5625 C3.86842753 8.12563162 3.86842753 8.12563162 6 10 C6.125 13.125 6.125 13.125 6 16 C5.01 16 4.02 16 3 16 C2.814375 14.4221875 2.814375 14.4221875 2.625 12.8125 C2.0841302 9.51319419 1.24000893 7.05868869 0 4 C0 2.68 0 1.36 0 0 Z " fill="#FBD217" transform="translate(70,40)"/>
<path d="M0 0 C4.55 4.2 4.55 4.2 6.125 7 C6 9 6 9 3.6875 11.75 C1 14 1 14 -1 14 C0.75 9.125 0.75 9.125 3 8 C2.690625 7.4225 2.38125 6.845 2.0625 6.25 C1.07416636 4.15705816 0.4831387 2.25464725 0 0 Z " fill="#BA3702" transform="translate(124,114)"/>
<path d="M0 0 C0.33 0 0.66 0 1 0 C1 1.98 1 3.96 1 6 C-2.75 7.125 -2.75 7.125 -5 6 C-5 7.65 -5 9.3 -5 11 C-5.66 10.67 -6.32 10.34 -7 10 C-6.75 7.625 -6.75 7.625 -6 5 C-4.0625 3.875 -4.0625 3.875 -2 3 C-1.34 2.01 -0.68 1.02 0 0 Z " fill="#E42215" transform="translate(95,74)"/>
<path d="M0 0 C2.76223278 2.76223278 2.57856291 5.20706617 3 9 C-2.75 12 -2.75 12 -5 12 C-5 11.34 -5 10.68 -5 10 C-4.34 10 -3.68 10 -3 10 C-3 9.34 -3 8.68 -3 8 C-2.01 8 -1.02 8 0 8 C0 5.36 0 2.72 0 0 Z " fill="#C23601" transform="translate(155,43)"/>
<path d="M0 0 C1.7074998 1.28062485 3.37373596 2.61767557 5 4 C5 4.66 5 5.32 5 6 C5.391875 5.505 5.78375 5.01 6.1875 4.5 C8.55091715 2.54406857 10.01435003 2.75792027 13 3 C10.59563974 6.60654039 9.05320393 6.85452932 5 8 C2.5 5.6875 2.5 5.6875 0 3 C0 2.01 0 1.02 0 0 Z " fill="#BE3701" transform="translate(158,41)"/>
<path d="M0 0 C0.99 0.495 0.99 0.495 2 1 C2.40729228 3.32156597 2.74438677 5.6568787 3 8 C5.475 8.99 5.475 8.99 8 10 C6.25 11.125 6.25 11.125 4 12 C2.68 11.34 1.36 10.68 0 10 C0 6.7 0 3.4 0 0 Z " fill="#C74C06" transform="translate(140,15)"/>
<path d="M0 0 C0.33 0.66 0.66 1.32 1 2 C-2.3 2 -5.6 2 -9 2 C-9 2.99 -9 3.98 -9 5 C-11.97 4.505 -11.97 4.505 -15 4 C-14.67 3.01 -14.34 2.02 -14 1 C-9.38 0.67 -4.76 0.34 0 0 Z " fill="#D34203" transform="translate(159,89)"/>
<path d="M0 0 C2.375 0.75 2.375 0.75 5 2 C5.66 3.32 6.32 4.64 7 6 C4.03 5.01 1.06 4.02 -2 3 C-2 3.66 -2 4.32 -2 5 C-2.99 4.67 -3.98 4.34 -5 4 C-3.35 2.68 -1.7 1.36 0 0 Z " fill="#C34501" transform="translate(162,100)"/>
<path d="M0 0 C0.66 0.99 1.32 1.98 2 3 C4.05925139 3.72382467 4.05925139 3.72382467 6 4 C0.375 7.875 0.375 7.875 -3 9 C-2.01 6.03 -1.02 3.06 0 0 Z " fill="#FDBD34" transform="translate(158,96)"/>
<path d="M0 0 C0 1.65 0 3.3 0 5 C-2.64 5 -5.28 5 -8 5 C-8 4.34 -8 3.68 -8 3 C-2.25 0 -2.25 0 0 0 Z " fill="#FAB834" transform="translate(158,52)"/>
<path d="M0 0 C0.66 0.33 1.32 0.66 2 1 C1.01 2.32 0.02 3.64 -1 5 C-8.09821429 4.33035714 -8.09821429 4.33035714 -11 1 C-10.37351562 1.09539062 -9.74703125 1.19078125 -9.1015625 1.2890625 C-7.87566406 1.45535156 -7.87566406 1.45535156 -6.625 1.625 C-5.81289062 1.74101563 -5.00078125 1.85703125 -4.1640625 1.9765625 C-3.44992188 1.98429687 -2.73578125 1.99203125 -2 2 C-1.34 1.34 -0.68 0.68 0 0 Z " fill="#BA3902" transform="translate(136,111)"/>
<path d="M0 0 C4.62 0 9.24 0 14 0 C14 0.33 14 0.66 14 1 C11.36 1.33 8.72 1.66 6 2 C6.33 2.99 6.66 3.98 7 5 C3.34683329 3.75023244 2.21934164 3.32901247 0 0 Z " fill="#FDB533" transform="translate(30,55)"/>
<path d="M0 0 C0 3.20395416 -0.74335022 5.09399739 -2 8 C-1.34 8 -0.68 8 0 8 C0.66 9.65 1.32 11.3 2 13 C0.02 11.68 -1.96 10.36 -4 9 C-3.46930939 5.17902761 -2.50298434 2.93828597 0 0 Z " fill="#BD3E01" transform="translate(172,46)"/>
<path d="M0 0 C1.65 0 3.3 0 5 0 C4.1875 2.4375 4.1875 2.4375 3 5 C2.01 5.33 1.02 5.66 0 6 C-0.66 5.67 -1.32 5.34 -2 5 C-2 3 -2 3 0 1 C0 0.67 0 0.34 0 0 Z " fill="#E32519" transform="translate(63,88)"/>
<path d="M0 0 C0.33 0.66 0.66 1.32 1 2 C0.67 2.66 0.34 3.32 0 4 C-0.66 4 -1.32 4 -2 4 C-1.34 2.68 -0.68 1.36 0 0 Z M-5 3 C-4.01 3.33 -3.02 3.66 -2 4 C-2 4.99 -2 5.98 -2 7 C-3.98 7 -5.96 7 -8 7 C-7.67 6.01 -7.34 5.02 -7 4 C-6.34 3.67 -5.68 3.34 -5 3 Z " fill="#E6221D" transform="translate(111,55)"/>
<path d="M0 0 C-0.99 0.66 -1.98 1.32 -3 2 C-3.72965366 4.56282742 -3.72965366 4.56282742 -4 7 C-4.66 7 -5.32 7 -6 7 C-6.33 4.69 -6.66 2.38 -7 0 C-4.3333581 -1.33332095 -2.83319697 -0.67102033 0 0 Z " fill="#E52516" transform="translate(148,127)"/>
<path d="M0 0 C1.98 0.99 1.98 0.99 4 2 C4 3.65 4 5.3 4 7 C3.34 7 2.68 7 2 7 C1.67 8.32 1.34 9.64 1 11 C0.67 7.37 0.34 3.74 0 0 Z " fill="#CD2E03" transform="translate(140,107)"/>
<path d="M0 0 C2.25 -0.25 2.25 -0.25 5 0 C7.3125 2 7.3125 2 9 4 C8.67 4.66 8.34 5.32 8 6 C4.74456771 5.65120368 3.98126893 4.97866739 1.75 2.4375 C1.1725 1.633125 0.595 0.82875 0 0 Z " fill="#C73A03" transform="translate(82,96)"/>
<path d="M0 0 C0.66 0.33 1.32 0.66 2 1 C0.02 3.31 -1.96 5.62 -4 8 C-4.99 7.67 -5.98 7.34 -7 7 C-5.66667905 3.00003714 -3.5042173 2.16217663 0 0 Z " fill="#C63D05" transform="translate(52,94)"/>
<path d="M0 0 C2.375 0.25 2.375 0.25 5 1 C6.375 2.8125 6.375 2.8125 7 5 C6.625 7.25 6.625 7.25 6 9 C5.67 8.01 5.34 7.02 5 6 C4.34 6 3.68 6 3 6 C3 4.35 3 2.7 3 1 C2.01 0.67 1.02 0.34 0 0 Z " fill="#C54503" transform="translate(130,32)"/>
<path d="M0 0 C3.35435922 1.38801071 5.11290303 2.88629 7 6 C7 6.99 7 7.98 7 9 C6.01 9.33 5.02 9.66 4 10 C4.33 8.35 4.66 6.7 5 5 C4.01 5 3.02 5 2 5 C1.34 3.35 0.68 1.7 0 0 Z " fill="#BF3C01" transform="translate(123,19)"/>
<path d="M0 0 C2.375 0.125 2.375 0.125 5 1 C6.875 3.4375 6.875 3.4375 8 6 C7.67 6.66 7.34 7.32 7 8 C6.13375 6.824375 6.13375 6.824375 5.25 5.625 C3.17102363 3.19952756 1.90959667 2.14305583 -1 1 C-0.67 0.67 -0.34 0.34 0 0 Z " fill="#BC3A00" transform="translate(130,127)"/>
<path d="M0 0 C2.61273988 1.30636994 2.97236124 2.28409758 4 5 C4.125 8.25 4.125 8.25 4 11 C2 10 2 10 0.875 7.75 C-0.00513321 4.98386705 -0.1645438 2.87951649 0 0 Z " fill="#E0231B" transform="translate(80,96)"/>
<path d="M0 0 C2.33294775 -0.04241723 4.66702567 -0.04092937 7 0 C8 1 8 1 8.0625 4.0625 C8.041875 5.031875 8.02125 6.00125 8 7 C6 4 6 4 6 2 C4.02 2 2.04 2 0 2 C0 1.34 0 0.68 0 0 Z " fill="#BC3C00" transform="translate(151,57)"/>
<path d="M0 0 C1.98 0.66 3.96 1.32 6 2 C6 2.66 6 3.32 6 4 C7.32 4.33 8.64 4.66 10 5 C9.67 5.99 9.34 6.98 9 8 C7.49712782 6.85793642 5.99776716 5.71125043 4.5 4.5625 C3.6646875 3.92441406 2.829375 3.28632812 1.96875 2.62890625 C1.3190625 2.09136719 0.669375 1.55382812 0 1 C0 0.67 0 0.34 0 0 Z " fill="#FBC02A" transform="translate(74,87)"/>
<path d="M0 0 C0.99 0 1.98 0 3 0 C3.33 1.65 3.66 3.3 4 5 C5.65 5.33 7.3 5.66 9 6 C9 6.33 9 6.66 9 7 C6.69 7 4.38 7 2 7 C1.34 4.69 0.68 2.38 0 0 Z " fill="#BC3700" transform="translate(163,83)"/>
<path d="M0 0 C0.66 0.33 1.32 0.66 2 1 C2 2.65 2 4.3 2 6 C1.01 6.33 0.02 6.66 -1 7 C-1 6.34 -1 5.68 -1 5 C-2.65 5.33 -4.3 5.66 -6 6 C-5.67 5.01 -5.34 4.02 -5 3 C-3.35 3.33 -1.7 3.66 0 4 C0 2.68 0 1.36 0 0 Z " fill="#FCD61E" transform="translate(165,94)"/>
<path d="M0 0 C2.97 0 5.94 0 9 0 C8.01 0.495 8.01 0.495 7 1 C7 1.99 7 2.98 7 4 C4.08482708 2.92598892 2.22189824 2.22189824 0 0 Z " fill="#FEBF3C" transform="translate(150,91)"/>
<path d="M0 0 C0.33 0 0.66 0 1 0 C1 2.31 1 4.62 1 7 C0.67 6.34 0.34 5.68 0 5 C-1.65 5.66 -3.3 6.32 -5 7 C-1.125 1.125 -1.125 1.125 0 0 Z " fill="#FCC32C" transform="translate(139,16)"/>
<path d="M0 0 C2 1 2 1 2.6875 2.9375 C3 5 3 5 2 7 C0.68 6.67 -0.64 6.34 -2 6 C-1.34 4.02 -0.68 2.04 0 0 Z " fill="#D13205" transform="translate(148,119)"/>
<path d="M0 0 C0.99 0 1.98 0 3 0 C3.33 1.32 3.66 2.64 4 4 C2.35 4.33 0.7 4.66 -1 5 C-0.67 3.35 -0.34 1.7 0 0 Z " fill="#EA2017" transform="translate(122,119)"/>
<path d="M0 0 C1.65 0 3.3 0 5 0 C4.67 1.32 4.34 2.64 4 4 C2.68 4 1.36 4 0 4 C0 2.68 0 1.36 0 0 Z " fill="#E81F1A" transform="translate(146,50)"/>
<path d="M0 0 C-1.07401108 2.91517292 -1.77810176 4.77810176 -4 7 C-4 6.01 -4 5.02 -4 4 C-4.99 3.67 -5.98 3.34 -7 3 C-2.25 0 -2.25 0 0 0 Z " fill="#FBAC38" transform="translate(172,45)"/>
<path d="M0 0 C1.98 1.65 3.96 3.3 6 5 C2.25 6.125 2.25 6.125 0 5 C0 3.35 0 1.7 0 0 Z " fill="#FDB837" transform="translate(157,43)"/>
<path d="M0 0 C-1.70625501 2.78388975 -2.47626739 3.85384206 -5.6875 4.75 C-6.8321875 4.87375 -6.8321875 4.87375 -8 5 C-8 4.34 -8 3.68 -8 3 C-6.68 3 -5.36 3 -4 3 C-4 2.34 -4 1.68 -4 1 C-4.66 0.67 -5.32 0.34 -6 0 C-3.50907189 -1.24546405 -2.58919267 -0.7767578 0 0 Z " fill="#CB3403" transform="translate(152,26)"/>
<path d="M0 0 C2.475 0.99 2.475 0.99 5 2 C3.35 3.65 1.7 5.3 0 7 C-0.38133299 5.0085944 -0.71325582 3.00720923 -1 1 C-0.67 0.67 -0.34 0.34 0 0 Z " fill="#E5251C" transform="translate(121,23)"/>
<path d="M0 0 C1.15957207 3.47871621 0.77456651 4.34219645 -0.4375 7.6875 C-0.72496094 8.49574219 -1.01242188 9.30398437 -1.30859375 10.13671875 C-1.65083984 11.05904297 -1.65083984 11.05904297 -2 12 C-2.33 12 -2.66 12 -3 12 C-3 9.03 -3 6.06 -3 3 C-2.01 2.67 -1.02 2.34 0 2 C0 1.34 0 0.68 0 0 Z " fill="#D22C06" transform="translate(46,85)"/>
<path d="M0 0 C1.32 0 2.64 0 4 0 C4 0.66 4 1.32 4 2 C4.66 2 5.32 2 6 2 C5.67 2.99 5.34 3.98 5 5 C4.01 4.67 3.02 4.34 2 4 C2 3.34 2 2.68 2 2 C1.34 2 0.68 2 0 2 C0 1.34 0 0.68 0 0 Z " fill="#DB2921" transform="translate(170,52)"/>
<path d="M0 0 C0.99 0.33 1.98 0.66 3 1 C2.67 2.98 2.34 4.96 2 7 C0.68 6.34 -0.64 5.68 -2 5 C-1.34 3.35 -0.68 1.7 0 0 Z " fill="#E13313" transform="translate(139,104)"/>
<path d="M0 0 C1.98 0 3.96 0 6 0 C6.33 0.99 6.66 1.98 7 3 C4.69 2.67 2.38 2.34 0 2 C0 1.34 0 0.68 0 0 Z " fill="#E91E1C" transform="translate(100,50)"/>
<path d="M0 0 C0.66 0.33 1.32 0.66 2 1 C1.34 2.98 0.68 4.96 0 7 C-0.66 6.67 -1.32 6.34 -2 6 C-2 4.35 -2 2.7 -2 1 C-1.34 0.67 -0.68 0.34 0 0 Z " fill="#F1E202" transform="translate(134,24)"/>
<path d="M0 0 C4.455 0.99 4.455 0.99 9 2 C9 2.66 9 3.32 9 4 C6.75 4.25 6.75 4.25 4 4 C1.6875 2 1.6875 2 0 0 Z " fill="#FEBC42" transform="translate(139,25)"/>
</svg>
