<?xml version="1.0" encoding="UTF-8"?>
<svg version="1.1" xmlns="http://www.w3.org/2000/svg" width="379" height="270">
<path d="M0 0 C125.07 0 250.14 0 379 0 C379 89.1 379 178.2 379 270 C253.93 270 128.86 270 0 270 C0 180.9 0 91.8 0 0 Z " fill="#FCFCFC" transform="translate(0,0)"/>
<path d="M0 0 C3.66426241 2.73127739 6.841458 5.70462585 10 9 C10.69351563 9.66257812 11.38703125 10.32515625 12.1015625 11.0078125 C24.03942926 23.13004786 28.96443904 39.49889296 29.3125 56.1875 C28.80558599 73.59804674 23.67763989 87.97401406 12 101 C11.39027344 101.81984375 10.78054687 102.6396875 10.15234375 103.484375 C4.41888749 110.18554711 -4.81919876 115.70623171 -13 119 C-13.81210938 119.36996094 -14.62421875 119.73992187 -15.4609375 120.12109375 C-23.26236656 123.14336319 -30.76329486 123.42253606 -39.0625 123.5 C-40.15030762 123.51836914 -41.23811523 123.53673828 -42.35888672 123.55566406 C-58.54044158 123.43368641 -74.46613058 116.15425893 -85.9375 104.8125 C-100.48674041 89.67883847 -106.49514499 71.55133585 -106.2734375 50.77734375 C-104.9490527 32.48191369 -96.31362514 17.11892012 -83 5 C-77.20010725 0.16418517 -71.06278096 -4.23898266 -64 -7 C-63.06542969 -7.37125 -62.13085938 -7.7425 -61.16796875 -8.125 C-40.39930428 -15.22034444 -18.37111435 -11.3695358 0 0 Z " fill="#01469E" transform="translate(228,79)"/>
<path d="M0 0 C3.66426241 2.73127739 6.841458 5.70462585 10 9 C10.69351563 9.66257812 11.38703125 10.32515625 12.1015625 11.0078125 C24.03942926 23.13004786 28.96443904 39.49889296 29.3125 56.1875 C28.90865385 73.09134615 28.90865385 73.09134615 25 77 C23.49833566 75.49833566 23.48088429 73.87675968 23.0625 71.8125 C22.46857523 68.99917212 21.8030233 66.42001305 20.875 63.6875 C20 61 20 61 20 57 C19.34 57 18.68 57 18 57 C16.37890625 55.3203125 16.37890625 55.3203125 14.5625 53.125 C12.41599116 50.53806278 10.83223438 48.88815626 8 47 C8 46.34 8 45.68 8 45 C7.05125 44.690625 6.1025 44.38125 5.125 44.0625 C2 43 2 43 0 42 C-1.5195764 41.84876169 -3.04472502 41.75118307 -4.5703125 41.68359375 C-5.46621094 41.64169922 -6.36210937 41.59980469 -7.28515625 41.55664062 C-8.22230469 41.51732422 -9.15945312 41.47800781 -10.125 41.4375 C-11.54232422 41.37272461 -11.54232422 41.37272461 -12.98828125 41.30664062 C-15.32537092 41.20040928 -17.6625683 41.09836824 -20 41 C-20 41.66 -20 42.32 -20 43 C-21.43671568 43.64757625 -22.87440416 44.29299453 -24.3125 44.9375 C-25.51326172 45.47697266 -25.51326172 45.47697266 -26.73828125 46.02734375 C-29 47 -29 47 -32 48 C-32.68904731 49.32190621 -33.3510689 50.65794536 -34 52 C-35.43577745 53.7245676 -36.91947343 55.40987009 -38.4375 57.0625 C-39.21996094 57.91972656 -40.00242188 58.77695313 -40.80859375 59.66015625 C-41.53175781 60.43230469 -42.25492188 61.20445312 -43 62 C-43.52335937 62.58265625 -44.04671875 63.1653125 -44.5859375 63.765625 C-46.78477849 65.68505526 -49.17368026 65.68596447 -52 66 C-52.495 67.485 -52.495 67.485 -53 69 C-56.00157393 69.38729986 -58.98813243 69.71594662 -62 70 C-63.13695312 70.13728516 -63.13695312 70.13728516 -64.296875 70.27734375 C-73.04037314 70.878826 -82.7936215 67.57707778 -89.48046875 61.890625 C-91.69286009 59.39085087 -93.50758695 56.9848261 -95 54 C-95.99 53.67 -96.98 53.34 -98 53 C-98 51.68 -98 50.36 -98 49 C-98.66 49 -99.32 49 -100 49 C-101.46988715 36.22534441 -102.06713003 26.94634416 -93.7109375 16.36816406 C-85.67872473 6.58030701 -75.93653881 -2.33370909 -64 -7 C-63.06542969 -7.37125 -62.13085938 -7.7425 -61.16796875 -8.125 C-40.39930428 -15.22034444 -18.37111435 -11.3695358 0 0 Z " fill="#CC2C39" transform="translate(228,79)"/>
<path d="M0 0 C2.74394229 2.6164978 4.96426059 5.21059322 7.03686523 8.38208008 C7.60102646 9.2400972 8.16518768 10.09811432 8.7464447 10.98213196 C9.64345848 12.36189461 9.64345848 12.36189461 10.55859375 13.76953125 C11.18476089 14.72389572 11.81092804 15.67826019 12.45606995 16.6615448 C14.45440249 19.7089292 16.44622738 22.76049871 18.4375 25.8125 C20.42635502 28.85301663 22.4165757 31.89262886 24.40821838 34.93132019 C25.64556442 36.81999093 26.88112138 38.70983537 28.11460876 40.60102844 C30.64183742 44.46539019 33.18422667 48.28884424 35.91821289 52.01049805 C38 55 38 55 38 57 C34.45364509 60.03973278 30.75332564 62.34166151 26 62.3125 C25.01 62.209375 24.02 62.10625 23 62 C23.495 63.98 23.495 63.98 24 66 C19.66872342 69.51446015 16.52857296 71.95405376 11 73 C8.39585286 75.35412766 8.39585286 75.35412766 6 78 C3.875 79.875 3.875 79.875 2 81 C-2.063749 79.645417 -3.05950984 77.02038865 -5.125 73.5 C-11.00518392 63.77900231 -17.43403002 54.44918946 -23.8515625 45.078125 C-24.52993164 44.08361328 -25.20830078 43.08910156 -25.90722656 42.06445312 C-26.98279229 40.48949967 -28.0588853 38.91487992 -29.1439209 37.34643555 C-30.27657308 35.70915052 -31.40012329 34.0655807 -32.5234375 32.421875 C-33.19036621 31.4534668 -33.85729492 30.48505859 -34.54443359 29.48730469 C-36 27 -36 27 -36 24 C-32.55444387 20.65373944 -28.42513632 18.72088635 -24 17 C-22.97803008 16.02246356 -21.98020375 15.0194119 -21 14 C-19.01811655 12.63988391 -17.02048131 11.30208796 -15 10 C-11.2047869 11.49097658 -9.38957269 13.75700849 -7 17 C-5.58255237 15.4243434 -5.58255237 15.4243434 -5 13 C-6.06762734 10.42998985 -7.46544943 8.3469597 -9 6 C-6.03 4.02 -3.06 2.04 0 0 Z " fill="#F1F1F1" transform="translate(86,163)"/>
<path d="M0 0 C1.28100586 1.58886719 1.28100586 1.58886719 2.71484375 3.796875 C3.23626953 4.5909375 3.75769531 5.385 4.29492188 6.203125 C4.83697266 7.04359375 5.37902344 7.8840625 5.9375 8.75 C7.00815856 10.39124905 8.07974345 12.03189427 9.15234375 13.671875 C9.62663818 14.4050293 10.10093262 15.13818359 10.58959961 15.89355469 C11.99228162 18.04440323 11.99228162 18.04440323 13.67797852 20.14550781 C15 22 15 22 15 24 C15.99 24.33 16.98 24.66 18 25 C17.505 26.485 17.505 26.485 17 28 C17.66 28.33 18.32 28.66 19 29 C18.34 29 17.68 29 17 29 C17 29.66 17 30.32 17 31 C17.59425781 31.07734375 18.18851562 31.1546875 18.80078125 31.234375 C21.75742469 32.26368604 22.48557676 33.64458665 24.1875 36.25 C24.78046875 37.14203125 25.3734375 38.0340625 25.984375 38.953125 C26.64953125 39.95859375 27.3146875 40.9640625 28 42 C28.81376329 43.16422579 29.63162883 44.3255927 30.453125 45.484375 C30.8653833 46.06799805 31.2776416 46.65162109 31.70239258 47.25292969 C32.51770882 48.40620168 33.33521287 49.55793047 34.1550293 50.70800781 C37 54.77525764 37 54.77525764 37 57 C33.94359012 58.88751503 30.79089428 60.54955549 27.625 62.24609375 C26.325625 63.11427734 26.325625 63.11427734 25 64 C25 64.99 25 65.98 25 67 C23.4252706 67.72726052 21.83975721 68.43120422 20.25 69.125 C18.92742187 69.71667969 18.92742187 69.71667969 17.578125 70.3203125 C15 71 15 71 13.02966309 70.30316162 C10.61003977 68.74962288 9.51416002 67.235764 7.94726562 64.82910156 C7.09618225 63.53700775 7.09618225 63.53700775 6.22790527 62.21881104 C5.62675903 61.28550964 5.02561279 60.35220825 4.40625 59.390625 C3.77771118 58.43105896 3.14917236 57.47149292 2.50158691 56.48284912 C0.49220913 53.41090479 -1.5040465 50.33067949 -3.5 47.25 C-4.84418676 45.18953939 -6.18922911 43.12963668 -7.53515625 41.0703125 C-10.54674882 36.46000903 -13.55068053 31.84484579 -16.54418945 27.22277832 C-17.80808904 25.29301582 -19.10313654 23.39044019 -20.41210938 21.49121094 C-22 19 -22 19 -22 17 C-22.66 17 -23.32 17 -24 17 C-24 16.34 -24 15.68 -24 15 C-20.62365257 12.1598467 -17.47602466 9.90774846 -13 10.1875 C-12.34 10.455625 -11.68 10.72375 -11 11 C-10.814375 10.113125 -10.62875 9.22625 -10.4375 8.3125 C-8.63451524 4.157796 -4.89439228 0 0 0 Z " fill="#F1F1F1" transform="translate(293,26)"/>
<path d="M0 0 C3.44094186 1.31246538 6.13540882 2.66588867 9 5 C8.67 6.98 8.34 8.96 8 11 C11.2981424 11.2236068 11.2981424 11.2236068 15 9 C19.455 11.97 19.455 11.97 24 15 C20.84665341 20.00422393 17.69228383 24.99507785 14.37890625 29.89453125 C13.93337402 30.55445068 13.4878418 31.21437012 13.02880859 31.89428711 C12.14905738 33.19341737 11.26539418 34.4899089 10.37744141 35.78344727 C8.132046 39.10205507 6.35596999 42.20059895 5 46 C3.48903268 48.87803298 2.08718341 50.91686118 -0.2734375 53.16796875 C-3.45080518 56.4682432 -5.8351051 59.97712567 -8.3125 63.8125 C-8.76689453 64.50537109 -9.22128906 65.19824219 -9.68945312 65.91210938 C-10.79831476 67.6045824 -11.89991438 69.30180958 -13 71 C-16.57770548 69.61702141 -19.74845193 68.04383021 -23 66 C-21.7508258 62.54074837 -20.32472205 59.85306797 -18 57 C-18.495 56.505 -18.495 56.505 -19 56 C-19.45890625 56.44472656 -19.9178125 56.88945312 -20.390625 57.34765625 C-21.00421875 57.91355469 -21.6178125 58.47945312 -22.25 59.0625 C-22.85328125 59.63097656 -23.4565625 60.19945312 -24.078125 60.78515625 C-26 62 -26 62 -28 61.84375 C-30.1675619 60.92930982 -31.86916652 59.84812511 -33.75 58.4375 C-34.36359375 57.98246094 -34.9771875 57.52742188 -35.609375 57.05859375 C-36.29773438 56.53458984 -36.29773438 56.53458984 -37 56 C-33.44179256 49.85269039 -29.66287354 43.86345705 -25.75 37.9375 C-25.31381348 37.27032959 -24.87762695 36.60315918 -24.42822266 35.91577148 C-21.23648628 31.11824314 -21.23648628 31.11824314 -19 30 C-18.01 30 -17.02 30 -16 30 C-16.06058594 29.11441406 -16.12117188 28.22882813 -16.18359375 27.31640625 C-15.97470697 23.54311106 -15.16933316 22.02847745 -13.0625 18.9375 C-12.11890625 17.53371094 -12.11890625 17.53371094 -11.15625 16.1015625 C-10.4446875 15.07804688 -9.733125 14.05453125 -9 13 C-8.17652072 11.79986501 -7.35362214 10.5993314 -6.53125 9.3984375 C-4.37075455 6.25385314 -2.19023145 3.12393557 0 0 Z " fill="#F0F0F0" transform="translate(306,173)"/>
<path d="M0 0 C2.74394229 2.6164978 4.96426059 5.21059322 7.03686523 8.38208008 C7.60102646 9.2400972 8.16518768 10.09811432 8.7464447 10.98213196 C9.34445389 11.90197372 9.94246307 12.82181549 10.55859375 13.76953125 C11.18476089 14.72389572 11.81092804 15.67826019 12.45606995 16.6615448 C14.45440249 19.7089292 16.44622738 22.76049871 18.4375 25.8125 C20.42635502 28.85301663 22.4165757 31.89262886 24.40821838 34.93132019 C25.64556442 36.81999093 26.88112138 38.70983537 28.11460876 40.60102844 C30.64183742 44.46539019 33.18422667 48.28884424 35.91821289 52.01049805 C38 55 38 55 38 57 C36.35546875 58.32421875 36.35546875 58.32421875 34.1875 59.6875 C33.12595703 60.37392578 33.12595703 60.37392578 32.04296875 61.07421875 C30 62 30 62 27 61 C25.58538818 59.28335571 25.58538818 59.28335571 24.10839844 57.02197266 C23.55061707 56.17663971 22.99283569 55.33130676 22.41815186 54.46035767 C21.82125549 53.53758026 21.22435913 52.61480286 20.609375 51.6640625 C19.98653625 50.71493988 19.36369751 49.76581726 18.72198486 48.78793335 C16.72364188 45.73856903 14.73680928 42.68188851 12.75 39.625 C11.42651299 37.60238559 10.10230248 35.58024439 8.77734375 33.55859375 C2.79031949 24.41070831 -3.1457858 15.23354484 -9 6 C-6.03 4.02 -3.06 2.04 0 0 Z " fill="#0A0A0A" transform="translate(86,163)"/>
<path d="M0 0 C3.0464323 2.36361127 4.87266634 5.42930505 6.9140625 8.64453125 C7.95545386 10.25362614 8.99858234 11.86159744 10.04296875 13.46875 C10.64898926 14.40380371 11.25500977 15.33885742 11.87939453 16.30224609 C13.96952609 19.47642961 16.09678501 22.62143189 18.24005127 25.7598114 C20.27337671 28.73722764 22.29682059 31.72130687 24.32012939 34.70553589 C25.34125391 36.20678142 26.36644998 37.7052656 27.39569092 39.20095825 C28.85767782 41.32801176 30.30336048 43.46532632 31.74609375 45.60546875 C32.19444077 46.24962234 32.64278778 46.89377594 33.10472107 47.55744934 C36.04977111 51.97183501 36.04977111 51.97183501 35.9987793 54.87744141 C34.40442586 57.70923375 31.7704284 58.95483454 29.0390625 60.58203125 C25.5421171 59.1530285 24.03361342 57.5556489 21.98632812 54.41113281 C21.13524475 53.119039 21.13524475 53.119039 20.26696777 51.80084229 C19.66582153 50.86754089 19.06467529 49.9342395 18.4453125 48.97265625 C17.81677368 48.01309021 17.18823486 47.05352417 16.54064941 46.06488037 C14.53127163 42.99293604 12.535016 39.91271074 10.5390625 36.83203125 C9.19487574 34.77157064 7.84983339 32.71166793 6.50390625 30.65234375 C3.49231368 26.04204028 0.48838197 21.42687704 -2.50512695 16.80480957 C-3.76902654 14.87504707 -5.06407404 12.97247144 -6.37304688 11.07324219 C-7.9609375 8.58203125 -7.9609375 8.58203125 -7.9609375 6.58203125 C-8.6209375 6.58203125 -9.2809375 6.58203125 -9.9609375 6.58203125 C-9.9609375 5.92203125 -9.9609375 5.26203125 -9.9609375 4.58203125 C-8.3515625 3.22265625 -8.3515625 3.22265625 -6.2109375 1.83203125 C-5.51484375 1.3628125 -4.81875 0.89359375 -4.1015625 0.41015625 C-1.9609375 -0.41796875 -1.9609375 -0.41796875 0 0 Z " fill="#0A0A0A" transform="translate(278.9609375,36.41796875)"/>
<path d="M0 0 C4.39309313 1.58003686 6.82418312 3.55197024 10 7 C6.53645833 12.1953125 3.07291667 17.390625 -0.390625 22.5859375 C-1.33131836 23.99697754 -1.33131836 23.99697754 -2.29101562 25.43652344 C-8.25 34.375 -8.25 34.375 -10.06640625 37.09765625 C-11.55571105 39.33311779 -13.04233561 41.57028047 -14.52734375 43.80859375 C-14.96852539 44.47262207 -15.40970703 45.13665039 -15.86425781 45.82080078 C-16.71484519 47.10107603 -17.56453053 48.38195129 -18.41308594 49.66357422 C-21.18989297 53.8401558 -24.06708002 57.93142007 -27 62 C-30.11198065 60.50163895 -33.0534615 58.80066242 -36 57 C-35.36614096 53.70538174 -34.16886654 51.4360354 -32.31958008 48.6496582 C-31.75841995 47.79809647 -31.19725983 46.94653473 -30.61909485 46.06916809 C-30.00873886 45.15560043 -29.39838287 44.24203278 -28.76953125 43.30078125 C-28.14149094 42.35116013 -27.51345062 41.401539 -26.86637878 40.42314148 C-24.85374131 37.38269462 -22.83323464 34.34756984 -20.8125 31.3125 C-19.47018422 29.28745324 -18.12838145 27.26206632 -16.78710938 25.23632812 C-11.2069923 16.81383447 -5.60611007 8.40520819 0 0 Z " fill="#080808" transform="translate(86,26)"/>
<path d="M0 0 C3.57770548 1.38297859 6.74845193 2.95616979 10 5 C8.72766952 8.43255439 7.26055457 11.34588497 5.20605469 14.37207031 C4.64497009 15.20353577 4.0838855 16.03500122 3.50579834 16.8916626 C2.59800629 18.22146149 2.59800629 18.22146149 1.671875 19.578125 C0.73193695 20.9671402 0.73193695 20.9671402 -0.22698975 22.38421631 C-2.23023922 25.3425026 -4.23996002 28.29632449 -6.25 31.25 C-7.58768005 33.22235759 -8.92492437 35.19501078 -10.26171875 37.16796875 C-12.15626992 39.96388711 -14.0514137 42.75937952 -15.95001221 45.55255127 C-19.66308738 51.01559384 -23.34333086 56.49902526 -27 62 C-29.97 60.35 -32.94 58.7 -36 57 C-35.02290891 52.11454457 -34.28701417 50.64150482 -31.375 46.875 C-28.73406182 43.35994848 -26.20307365 39.85466902 -23.875 36.125 C-18.66944332 27.80572696 -13.15200084 19.68951427 -7.69482422 11.53417969 C-5.12548486 7.69238444 -2.56248837 3.84636705 0 0 Z " fill="#080808" transform="translate(114,45)"/>
<path d="M0 0 C3.98467756 0.82292254 6.67947232 2.66053731 10 5 C8.74038903 7.59968324 7.39176135 10.05337619 5.8203125 12.4765625 C5.39234375 13.13793213 4.964375 13.79930176 4.5234375 14.48071289 C4.06195313 15.18832764 3.60046875 15.89594238 3.125 16.625 C2.6403125 17.37064209 2.155625 18.11628418 1.65625 18.88452148 C-3.33565202 26.54597111 -8.38676812 34.16734198 -13.49169922 41.75390625 C-14.51494486 43.27767768 -15.53469107 44.80380377 -16.55126953 46.33203125 C-18.04740761 48.58072631 -19.55367706 50.82230298 -21.0625 53.0625 C-21.7421582 54.09032593 -21.7421582 54.09032593 -22.43554688 55.13891602 C-25.65763947 59.88587982 -25.65763947 59.88587982 -29 61 C-30.82421875 60.00390625 -30.82421875 60.00390625 -32.6875 58.5625 C-33.31011719 58.08941406 -33.93273437 57.61632812 -34.57421875 57.12890625 C-35.04472656 56.75636719 -35.51523438 56.38382813 -36 56 C-34.65012301 52.3369843 -32.99756717 49.21020241 -30.875 45.9375 C-29.92947266 44.47763672 -29.92947266 44.47763672 -28.96484375 42.98828125 C-26.10130556 38.63319832 -23.21620761 34.2934069 -20.31347656 29.96435547 C-18.72242454 27.58487506 -17.13850522 25.20070791 -15.5546875 22.81640625 C-14.93924072 21.89069824 -14.32379395 20.96499023 -13.68969727 20.01123047 C-12.46282307 18.1657334 -11.23671588 16.31972613 -10.01147461 14.47314453 C-6.75793468 9.58394269 -3.44540116 4.75608107 0 0 Z " fill="#080808" transform="translate(100,36)"/>
<path d="M0 0 C1.41461182 1.71664429 1.41461182 1.71664429 2.89160156 3.97802734 C3.44938293 4.82336029 4.00716431 5.66869324 4.58184814 6.53964233 C5.47719269 7.92380844 5.47719269 7.92380844 6.390625 9.3359375 C7.01346375 10.28506012 7.63630249 11.23418274 8.27801514 12.21206665 C10.27635812 15.26143097 12.26319072 18.31811149 14.25 21.375 C15.57348701 23.39761441 16.89769752 25.41975561 18.22265625 27.44140625 C24.20968051 36.58929169 30.1457858 45.76645516 36 55 C30.04296875 59.78515625 30.04296875 59.78515625 28 61 C23.936251 59.645417 22.94049016 57.02038865 20.875 53.5 C14.99481608 43.77900231 8.56596998 34.44918946 2.1484375 25.078125 C1.47006836 24.08361328 0.79169922 23.08910156 0.09277344 22.06445312 C-0.98279229 20.48949967 -2.0588853 18.91487992 -3.1439209 17.34643555 C-4.27657308 15.70915052 -5.40012329 14.0655807 -6.5234375 12.421875 C-7.19036621 11.4534668 -7.85729492 10.48505859 -8.54443359 9.48730469 C-10 7 -10 7 -10 4 C-8.57421875 2.578125 -8.57421875 2.578125 -6.6875 1.25 C-6.07261719 0.80140625 -5.45773438 0.3528125 -4.82421875 -0.109375 C-3 -1 -3 -1 0 0 Z " fill="#070707" transform="translate(60,183)"/>
<path d="M0 0 C3.68976759 3.37374582 6.28376259 7.15994917 9 11.3125 C9.42539062 11.95123047 9.85078125 12.58996094 10.2890625 13.24804688 C13.03731631 17.4083636 15.56762591 21.64762691 18 26 C15.03 27.98 12.06 29.96 9 32 C6.02457461 29.20608204 3.82845541 26.40697189 1.6875 22.9375 C1.09195312 21.98101562 0.49640625 21.02453125 -0.1171875 20.0390625 C-0.73851562 19.03617188 -1.35984375 18.03328125 -2 17 C-3.30986062 14.93582276 -4.62224474 12.87324407 -5.9375 10.8125 C-6.95833333 9.20833333 -7.97916667 7.60416667 -9 6 C-6.03 4.02 -3.06 2.04 0 0 Z " fill="#0B0B0B" transform="translate(284,75)"/>
<path d="M0 0 C3.45925163 1.2491742 6.14693203 2.67527795 9 5 C7.64356298 8.71710317 5.95339775 11.8054197 3.7421875 15.08203125 C2.80439453 16.47905273 2.80439453 16.47905273 1.84765625 17.90429688 C1.19667969 18.86400391 0.54570312 19.82371094 -0.125 20.8125 C-0.78371094 21.79154297 -1.44242187 22.77058594 -2.12109375 23.77929688 C-3.74325789 26.18903347 -5.36966846 28.59578494 -7 31 C-10.57770548 29.61702141 -13.74845193 28.04383021 -17 26 C-15.51177855 21.73323744 -13.34625617 18.37436038 -10.75 14.6875 C-10.35176025 14.1200708 -9.95352051 13.5526416 -9.54321289 12.96801758 C-6.44958475 8.57981738 -3.27682938 4.25345304 0 0 Z " fill="#0A0A0A" transform="translate(300,213)"/>
<path d="M0 0 C2.97 1.65 5.94 3.3 9 5 C9 8.89364132 7.67482358 10.33170581 5.5 13.54296875 C4.4171875 15.15268555 4.4171875 15.15268555 3.3125 16.79492188 C2.54181505 17.92588238 1.77097977 19.05674045 1 20.1875 C0.22853422 21.3296512 -0.5423069 22.47222458 -1.3125 23.61523438 C-3.20221741 26.41437829 -5.09825265 29.20902139 -7 32 C-9.97 30.02 -12.94 28.04 -16 26 C-14.64327219 22.60818046 -13.71084275 20.31754525 -11.7578125 17.44140625 C-11.33113281 16.80783203 -10.90445312 16.17425781 -10.46484375 15.52148438 C-9.80162109 14.55178711 -9.80162109 14.55178711 -9.125 13.5625 C-8.69058594 12.91990234 -8.25617188 12.27730469 -7.80859375 11.61523438 C-6.95259911 10.3492363 -6.09489644 9.08439113 -5.23535156 7.82080078 C-3.47393132 5.22462052 -1.73653354 2.61287721 0 0 Z " fill="#0A0A0A" transform="translate(320,182)"/>
<path d="M0 0 C4.96356611 4.44010151 8.26388493 9.71462896 11.8125 15.3125 C12.7087207 16.70952148 12.7087207 16.70952148 13.62304688 18.13476562 C15.08770613 20.41963407 16.54646439 22.70804543 18 25 C15.45831249 27.57359154 13.01881396 29.98745736 10 32 C9.34 32 8.68 32 8 32 C6.8425293 30.55053711 6.8425293 30.55053711 5.57421875 28.52734375 C5.10693359 27.79193359 4.63964844 27.05652344 4.15820312 26.29882812 C3.67287109 25.51958984 3.18753906 24.74035156 2.6875 23.9375 C-0.73291514 18.50671842 -4.21798583 13.18735277 -8 8 C-6.49776416 3.79373966 -3.71449966 2.26099979 0 0 Z " fill="#0A0A0A" transform="translate(92,203)"/>
<path d="M0 0 C2.86078507 3.59330721 5.25817862 7.51938028 7.75 11.375 C8.46027344 12.44234375 9.17054688 13.5096875 9.90234375 14.609375 C10.56878906 15.63289063 11.23523438 16.65640625 11.921875 17.7109375 C12.53643555 18.65243652 13.15099609 19.59393555 13.78417969 20.56396484 C15 23 15 23 14 26 C8.74285714 30 8.74285714 30 5 30 C3.43915595 27.90072525 2.0890939 25.85997668 0.75 23.625 C-0.04372353 22.34000166 -0.83931442 21.05615497 -1.63671875 19.7734375 C-2.03165527 19.1350293 -2.4265918 18.49662109 -2.83349609 17.83886719 C-5.00294211 14.41897029 -7.39792116 11.16021682 -9.78515625 7.890625 C-11 6 -11 6 -11 4 C-9.35546875 2.67578125 -9.35546875 2.67578125 -7.1875 1.3125 C-6.47980469 0.85488281 -5.77210938 0.39726563 -5.04296875 -0.07421875 C-3 -1 -3 -1 0 0 Z " fill="#0A0A0A" transform="translate(266,46)"/>
<path d="M0 0 C5.6536766 2.25093632 8.08289821 7.48660174 11.3125 12.375 C11.97056641 13.3340625 12.62863281 14.293125 13.30664062 15.28125 C14.23186523 16.66957031 14.23186523 16.66957031 15.17578125 18.0859375 C15.74208252 18.9320459 16.30838379 19.7781543 16.8918457 20.64990234 C18 23 18 23 17.86791992 25.16650391 C16.44413738 28.17426957 13.78198443 29.34264757 11 31 C6.60475851 29.5050199 4.85243489 26.14980687 2.5625 22.375 C2.17143066 21.74489014 1.78036133 21.11478027 1.37744141 20.46557617 C0.60159075 19.21498722 -0.17096126 17.96234482 -0.93994141 16.70751953 C-2.2844914 14.54174738 -3.71015737 12.43278237 -5.125 10.3125 C-5.74375 9.219375 -6.3625 8.12625 -7 7 C-5.66667905 3.00003714 -3.5042173 2.16217663 0 0 Z " fill="#090909" transform="translate(71,173)"/>
<path d="M0 0 C2.33880987 1.52977691 3.41795387 2.96822629 4.92797852 5.31201172 C5.70044922 6.4934375 5.70044922 6.4934375 6.48852539 7.69873047 C7.01381836 8.52244141 7.53911133 9.34615234 8.08032227 10.19482422 C9.13281875 11.81779687 10.18617616 13.4402116 11.24047852 15.06201172 C11.70204346 15.78243652 12.1636084 16.50286133 12.63916016 17.24511719 C14.0128238 19.36995994 14.0128238 19.36995994 15.69140625 21.4609375 C17.01782227 23.31982422 17.01782227 23.31982422 17.01782227 25.31982422 C15.37329102 26.64404297 15.37329102 26.64404297 13.20532227 28.00732422 C12.49762695 28.46494141 11.78993164 28.92255859 11.06079102 29.39404297 C9.01782227 30.31982422 9.01782227 30.31982422 6.01782227 29.31982422 C3.13063186 25.75244157 0.71371448 21.84736059 -1.79467773 18.00732422 C-2.51333008 16.94835937 -3.23198242 15.88939453 -3.97241211 14.79833984 C-4.64208008 13.77804688 -5.31174805 12.75775391 -6.00170898 11.70654297 C-6.62150635 10.77028076 -7.24130371 9.83401855 -7.87988281 8.86938477 C-8.98217773 6.31982422 -8.98217773 6.31982422 -8.31689453 4.1003418 C-6.16635324 1.23151105 -3.68388605 -1.26410969 0 0 Z " fill="#0A0A0A" transform="translate(312.982177734375,57.68017578125)"/>
<path d="M0 0 C6.9609375 3.609375 6.9609375 3.609375 9 8 C6.60183228 11.65832016 4.1784908 15.29925269 1.75 18.9375 C1.06808594 19.97841797 0.38617188 21.01933594 -0.31640625 22.09179688 C-1.31220703 23.57583008 -1.31220703 23.57583008 -2.328125 25.08984375 C-2.9355957 26.00628662 -3.54306641 26.92272949 -4.16894531 27.86694336 C-6 30 -6 30 -8.109375 30.86914062 C-10.72437124 31.05013727 -11.71976822 30.16325967 -13.75 28.5625 C-14.36359375 28.08941406 -14.9771875 27.61632812 -15.609375 27.12890625 C-16.06828125 26.75636719 -16.5271875 26.38382813 -17 26 C-13.43432201 19.83978396 -9.63587527 13.85723354 -5.6875 7.9375 C-5.02065186 6.93674438 -5.02065186 6.93674438 -4.34033203 5.91577148 C-1.13506369 1.13506369 -1.13506369 1.13506369 0 0 Z " fill="#090909" transform="translate(286,203)"/>
<path d="M0 0 C3.45925163 1.2491742 6.14693203 2.67527795 9 5 C7.64356298 8.71710317 5.95339775 11.8054197 3.7421875 15.08203125 C2.80439453 16.47905273 2.80439453 16.47905273 1.84765625 17.90429688 C1.19667969 18.86400391 0.54570312 19.82371094 -0.125 20.8125 C-0.78371094 21.79154297 -1.44242187 22.77058594 -2.12109375 23.77929688 C-3.74325789 26.18903347 -5.36966846 28.59578494 -7 31 C-10.57770548 29.61702141 -13.74845193 28.04383021 -17 26 C-14.88727237 21.62032659 -12.26862834 17.63577473 -9.625 13.5625 C-8.90183594 12.43618164 -8.90183594 12.43618164 -8.1640625 11.28710938 C-5.61903292 7.35545362 -3.01577241 3.5946292 0 0 Z " fill="#070707" transform="translate(272,194)"/>
<path d="M0 0 C1.26513672 1.55712891 1.26513672 1.55712891 2.6796875 3.7265625 C3.45505859 4.90412109 3.45505859 4.90412109 4.24609375 6.10546875 C4.78363281 6.93691406 5.32117188 7.76835938 5.875 8.625 C6.40480469 9.43324219 6.93460937 10.24148437 7.48046875 11.07421875 C8.51536515 12.65352716 9.5476711 14.23453664 10.57714844 15.81738281 C12.36432948 18.55887192 14.17862772 21.28113994 16 24 C14.54875366 27.82601307 12.64225296 29.22329124 9 31 C8.01 31 7.02 31 6 31 C4.19067383 28.796875 4.19067383 28.796875 2.20703125 25.75 C1.1387207 24.12578125 1.1387207 24.12578125 0.04882812 22.46875 C-0.69683979 21.31264523 -1.44227956 20.15639327 -2.1875 19 C-2.94370657 17.84312526 -3.70085662 16.68686665 -4.45898438 15.53125 C-6.31538444 12.69344098 -8.16182241 9.84963315 -10 7 C-3.08677686 0 -3.08677686 0 0 0 Z " fill="#080808" transform="translate(293,26)"/>
<path d="M0 0 C6.75 3.5 6.75 3.5 9 8 C1.08 19.88 1.08 19.88 -7 32 C-9.97 30.35 -12.94 28.7 -16 27 C-15.04998147 23.1999259 -14.0399665 21.21835418 -11.9375 18 C-11.00550781 16.56720703 -11.00550781 16.56720703 -10.0546875 15.10546875 C-9.37664062 14.08066406 -8.69859375 13.05585938 -8 12 C-7.63293945 11.44521973 -7.26587891 10.89043945 -6.88769531 10.31884766 C-4.60373329 6.8711902 -2.30641702 3.43266741 0 0 Z " fill="#090909" transform="translate(292,163)"/>
<path d="M0 0 C3.45925163 1.2491742 6.14693203 2.67527795 9 5 C7.96141322 10.63362055 4.29509235 15.05894099 1.1875 19.75 C0.55779297 20.73355469 -0.07191406 21.71710938 -0.72070312 22.73046875 C-1.33494141 23.65988281 -1.94917969 24.58929688 -2.58203125 25.546875 C-3.14124268 26.40120117 -3.7004541 27.25552734 -4.27661133 28.13574219 C-4.84532959 28.75094727 -5.41404785 29.36615234 -6 30 C-10.71906188 30 -12.27037031 28.71245796 -16 26 C-14.46785649 21.65756118 -12.20066202 17.95227076 -9.6875 14.125 C-9.28668213 13.50802246 -8.88586426 12.89104492 -8.47290039 12.25537109 C-5.75379304 8.09065541 -2.95416453 4.00241646 0 0 Z " fill="#080808" transform="translate(306,173)"/>
<path d="M0 0 C0.99 0 1.98 0 3 0 C4.01233835 2.9663868 4.42307788 5.07877109 3.08642578 7.98925781 C1.65248548 10.26233431 0.13523936 12.44562272 -1.4375 14.625 C-2.26858276 15.82141113 -2.26858276 15.82141113 -3.11645508 17.04199219 C-4.22675852 18.64026133 -5.34344067 20.23412016 -6.46679688 21.82324219 C-8.42344361 24.60118205 -10.30976292 27.41812822 -12.1875 30.25 C-12.79980469 31.1678125 -13.41210938 32.085625 -14.04296875 33.03125 C-17.74882441 38.65290729 -21.37429128 44.32643728 -25 50 C-26.98 49.01 -28.96 48.02 -31 47 C-27.08787797 40.74536112 -23.06770145 34.60549091 -18.80859375 28.58203125 C-14.57601754 22.53941165 -10.47102477 16.40429346 -6.59765625 10.125 C-6.19595215 9.48014648 -5.79424805 8.83529297 -5.38037109 8.17089844 C-4.59673651 6.90899976 -3.82200255 5.64152173 -3.05712891 4.36816406 C-1.98046875 2.640625 -1.98046875 2.640625 0 0 Z " fill="#ECECEC" transform="translate(103,51)"/>
<path d="M0 0 C0.61875 0.185625 1.2375 0.37125 1.875 0.5625 C4.04160178 1.23686176 4.04160178 1.23686176 6 0 C4.68871041 4.56923588 2.90215288 7.90471139 0.125 11.75 C-0.68016246 12.87894306 -1.48343838 14.00923317 -2.28515625 15.140625 C-2.71844238 15.75099609 -3.15172852 16.36136719 -3.59814453 16.99023438 C-6.76973548 21.53717563 -9.79198885 26.18734295 -12.83740234 30.81933594 C-15.40218873 34.69604008 -18.01515631 38.42669544 -21 42 C-22.65 41.34 -24.3 40.68 -26 40 C-22.25913346 33.38241846 -18.39718115 26.96873688 -13.96875 20.7890625 C-11.47535194 17.25674858 -9.07985353 13.66373039 -6.6875 10.0625 C-6.2546167 9.41112061 -5.8217334 8.75974121 -5.37573242 8.08862305 C-4.24976057 6.39289834 -3.1248225 4.69648732 -2 3 C-1.34 2.01 -0.68 1.02 0 0 Z " fill="#F1F1F1" transform="translate(91,39)"/>
<path d="M0 0 C7.87446191 7.10019474 9.62310584 19.20020115 10.1875 29.3828125 C10.32120663 36.98737699 10.00507722 44.62329615 8 52 C7.34 52.66 6.68 53.32 6 54 C4.49833566 52.49833566 4.48088429 50.87675968 4.0625 48.8125 C3.46857523 45.99917212 2.8030233 43.42001305 1.875 40.6875 C1 38 1 38 1 34 C0.34 34 -0.32 34 -1 34 C-2.69140625 32.3203125 -2.69140625 32.3203125 -4.5625 30.125 C-5.18253906 29.40570313 -5.80257812 28.68640625 -6.44140625 27.9453125 C-8 26 -8 26 -9 24 C-6.73165608 25.09216559 -4.66250042 26.22499972 -2.5625 27.625 C0.24211138 29.12991342 1.87003753 29.2682825 5 29 C5.12375 29.639375 5.2475 30.27875 5.375 30.9375 C5.58125 31.618125 5.7875 32.29875 6 33 C6.66 33.33 7.32 33.66 8 34 C7.67 29.05 7.34 24.1 7 19 C6.34 19 5.68 19 5 19 C4.35377959 16.58343624 3.70800996 14.16675354 3.0625 11.75 C2.88009766 11.06808594 2.69769531 10.38617188 2.50976562 9.68359375 C1.64946879 6.46139106 0.79316866 3.23946777 0 0 Z " fill="#AD3242" transform="translate(247,102)"/>
<path d="M0 0 C0.5775 0.226875 1.155 0.45375 1.75 0.6875 C0.80125 1.265 -0.1475 1.8425 -1.125 2.4375 C-4.22485977 4.66939903 -4.6944249 5.47264479 -6.25 8.6875 C-6.971875 9.079375 -7.69375 9.47125 -8.4375 9.875 C-12.11067759 12.24215889 -14.10370391 15.28087636 -16.6015625 18.82421875 C-17.41753906 19.74654297 -17.41753906 19.74654297 -18.25 20.6875 C-19.24 20.6875 -20.23 20.6875 -21.25 20.6875 C-21.58 22.0075 -21.91 23.3275 -22.25 24.6875 C-34.30245985 27.79781222 -48.38974385 28.83069663 -59.53125 22.36328125 C-63.77055173 19.349897 -67.34157658 16.00322508 -70.25 11.6875 C-70.0625 9.3125 -70.0625 9.3125 -69.25 7.6875 C-66.25 11.4375 -66.25 11.4375 -66.25 13.6875 C-65.610625 13.955625 -64.97125 14.22375 -64.3125 14.5 C-62.25 15.6875 -62.25 15.6875 -61.25 18.6875 C-60.52167969 18.80996094 -59.79335937 18.93242187 -59.04296875 19.05859375 C-56.30764931 19.67451883 -54.1009021 20.57939804 -51.5625 21.75 C-46.27048112 23.91705818 -41.89564012 24.13556668 -36.25 23.6875 C-35.41726562 23.64367187 -34.58453125 23.59984375 -33.7265625 23.5546875 C-29.29019321 23.43904942 -29.29019321 23.43904942 -25.74609375 21.14453125 C-24.25 19.6875 -24.25 19.6875 -20.25 19.6875 C-19.755 18.2025 -19.755 18.2025 -19.25 16.6875 C-17.59185251 15.34358689 -15.92398939 14.01162804 -14.25 12.6875 C-12.8502987 11.03757277 -11.49524362 9.34872569 -10.1875 7.625 C-3.97756471 -0.55243954 -3.97756471 -0.55243954 0 0 Z " fill="#3C3875" transform="translate(202.25,124.3125)"/>
<path d="M0 0 C0.99 0.66 1.98 1.32 3 2 C3 2.66 3 3.32 3 4 C3.66 4 4.32 4 5 4 C11.73994131 21.9627273 11.73994131 21.9627273 8.80859375 30.44921875 C5.07588787 38.46024645 0.33052367 44.76996083 -6 51 C-6.33 50.34 -6.66 49.68 -7 49 C-6.54625 48.5875 -6.0925 48.175 -5.625 47.75 C-3.93212913 45.92690829 -3.07658236 44.22493688 -2 42 C-1.34 41.34 -0.68 40.68 0 40 C0 39.01 0 38.02 0 37 C0.639375 36.79375 1.27875 36.5875 1.9375 36.375 C4.34925077 35.10461791 4.34925077 35.10461791 4.75 31.875 C4.8325 30.92625 4.915 29.9775 5 29 C4.01 28.67 3.02 28.34 2 28 C2 28.66 2 29.32 2 30 C1.01 29.67 0.02 29.34 -1 29 C-0.28070313 28.17242187 -0.28070313 28.17242187 0.453125 27.328125 C4.37585426 21.42421934 3.24704011 12.68866971 2 6 C1.38761101 3.98271862 0.74023321 1.97395523 0 0 Z " fill="#054594" transform="translate(243,132)"/>
<path d="M0 0 C0.33 0 0.66 0 1 0 C1 5.94 1 11.88 1 18 C1.66 18 2.32 18 3 18 C2.67 19.32 2.34 20.64 2 22 C1.01 20.35 0.02 18.7 -1 17 C-3.27788349 19.27788349 -2.30762622 23.99469428 -2.32348633 27.06274414 C-2.23396083 32.83237671 -1.40936252 38.30445864 -0.1875 43.9375 C-0.0222583 44.72439209 0.1429834 45.51128418 0.31323242 46.32202148 C0.85149562 48.76386471 0.85149562 48.76386471 2 52 C2.99 52.33 3.98 52.66 5 53 C5.061875 53.7425 5.12375 54.485 5.1875 55.25 C5.75456491 58.18803254 5.75456491 58.18803254 8.375 59.75 C12.04505531 62.8957617 12.7983675 66.42793486 14 71 C3.17601187 63.10750865 -2.19519832 48.85886836 -4.3371582 35.97143555 C-5.99165455 23.56197105 -4.97376631 12.79362773 -1 1 C-0.67 0.67 -0.34 0.34 0 0 Z " fill="#234A8C" transform="translate(127,110)"/>
<path d="M0 0 C3.72027744 1.24009248 4.24236881 2.45390451 6.35546875 5.69140625 C6.97744141 6.63564453 7.59941406 7.57988281 8.24023438 8.55273438 C8.88283203 9.54595703 9.52542969 10.53917969 10.1875 11.5625 C11.16879883 13.05813477 11.16879883 13.05813477 12.16992188 14.58398438 C13.78727397 17.05133172 15.3968893 19.5233853 17 22 C15.35 23.32 13.7 24.64 12 26 C11.67 25.67 11.34 25.34 11 25 C10.34 25.99 9.68 26.98 9 28 C8.34 27.67 7.68 27.34 7 27 C7 26.34 7 25.68 7 25 C7.66 24.67 8.32 24.34 9 24 C7.15473855 18.66924471 3.92688647 14.61995628 0.58203125 10.1328125 C-1.37223082 6.26289106 -0.9823186 4.14756744 0 0 Z " fill="#F0F0F0" transform="translate(271,47)"/>
<path d="M0 0 C1.3778064 0.13208862 1.3778064 0.13208862 2.78344727 0.2668457 C2.23196675 4.31342352 1.03226103 6.70054917 -1.40405273 9.9543457 C-4.99517248 14.88842552 -8.15301316 19.99262006 -11.21655273 25.2668457 C-13.15405273 24.4543457 -13.15405273 24.4543457 -15.21655273 23.2668457 C-16.21655273 20.2668457 -16.21655273 20.2668457 -15.23193359 18.09033203 C-13.56085357 15.40518455 -11.87297161 12.73418183 -10.15405273 10.0793457 C-9.57977539 9.13897461 -9.00549805 8.19860352 -8.41381836 7.22973633 C-7.84211914 6.34092773 -7.27041992 5.45211914 -6.68139648 4.53637695 C-6.16182373 3.71758057 -5.64225098 2.89878418 -5.10693359 2.05517578 C-3.21655273 0.2668457 -3.21655273 0.2668457 0 0 Z " fill="#ECECEC" transform="translate(301.216552734375,173.733154296875)"/>
<path d="M0 0 C0.33 0 0.66 0 1 0 C0.9278125 0.61488281 0.855625 1.22976562 0.78125 1.86328125 C0.64203125 3.07564453 0.64203125 3.07564453 0.5 4.3125 C0.36078125 5.51326172 0.36078125 5.51326172 0.21875 6.73828125 C-0.04813463 9.11896555 -0.04813463 9.11896555 0 12 C-1.01274398 13.81212898 -2.1084652 15.57861416 -3.25 17.3125 C-3.88550781 18.28445312 -4.52101563 19.25640625 -5.17578125 20.2578125 C-6.07876953 21.61519531 -6.07876953 21.61519531 -7 23 C-7.44730469 23.67804688 -7.89460938 24.35609375 -8.35546875 25.0546875 C-9.23003029 26.37442296 -10.11362714 27.68816817 -11 29 C-12.98 28.34 -14.96 27.68 -17 27 C-16.61070312 26.3915625 -16.22140625 25.783125 -15.8203125 25.15625 C-12.96882937 20.68848842 -10.12825433 16.21684806 -7.34375 11.70703125 C-6.89370605 10.98 -6.44366211 10.25296875 -5.97998047 9.50390625 C-5.0802062 8.04870375 -4.18336909 6.59168085 -3.28955078 5.1328125 C-2.21972934 3.40505714 -1.11341732 1.69998775 0 0 Z " fill="#EDEDED" transform="translate(281,199)"/>
<path d="M0 0 C2.35035287 0.91402611 4.6481053 1.81232283 6.875 3 C11.02095012 4.95103535 15.55559437 5.93334265 20 7 C20 6.34 20 5.68 20 5 C21.32 5.33 22.64 5.66 24 6 C24 6.99 24 7.98 24 9 C35.71811669 9.10902914 47.3222103 9.09908609 59 8 C53.53700939 13.46299061 44.47201325 12.36681302 37.3125 12.375 C36.20455078 12.39949219 35.09660156 12.42398438 33.95507812 12.44921875 C23.66167199 12.48531486 14.78852524 9.9397587 5.8125 4.875 C4.91144531 4.37742188 4.01039063 3.87984375 3.08203125 3.3671875 C1 2 1 2 0 0 Z " fill="#124183" transform="translate(152,190)"/>
<path d="M0 0 C0 3.81082146 -1.16710912 4.73898513 -3.5 7.6875 C-7.00171447 12.48562385 -7.75711986 15.15936104 -7 21 C-6.01 20.01 -5.02 19.02 -4 18 C-3.94610913 19.95803507 -3.90725783 21.91648909 -3.875 23.875 C-3.85179687 24.96554688 -3.82859375 26.05609375 -3.8046875 27.1796875 C-4 30 -4 30 -6 32 C-6 29.03 -6 26.06 -6 23 C-7.32 23 -8.64 23 -10 23 C-9.34 29.6 -8.68 36.2 -8 43 C-8.66 43 -9.32 43 -10 43 C-10 41.68 -10 40.36 -10 39 C-10.66 39 -11.32 39 -12 39 C-13.5362444 25.6486396 -13.68698674 16.53856276 -5.0390625 5.49609375 C-3.41711428 3.59278716 -1.76232293 1.77275087 0 0 Z " fill="#B03841" transform="translate(140,89)"/>
<path d="M0 0 C2.39177569 0.38046657 3.67572812 0.64708115 5.34033203 2.45874023 C5.72560059 3.06919189 6.11086914 3.67964355 6.5078125 4.30859375 C6.93707031 4.97310547 7.36632812 5.63761719 7.80859375 6.32226562 C8.24300781 7.02029297 8.67742187 7.71832031 9.125 8.4375 C10.00074037 9.81238685 10.8782703 11.1861359 11.7578125 12.55859375 C12.1408252 13.17017334 12.52383789 13.78175293 12.91845703 14.41186523 C14.03890262 16.16318985 14.03890262 16.16318985 16 18 C15.05125 17.979375 14.1025 17.95875 13.125 17.9375 C10.09333717 17.77448174 10.09333717 17.77448174 8 19 C7.52949219 18.25234375 7.05898438 17.5046875 6.57421875 16.734375 C5.95160156 15.74953125 5.32898438 14.7646875 4.6875 13.75 C4.07261719 12.77546875 3.45773437 11.8009375 2.82421875 10.796875 C1.29524241 8.45266287 -0.28820977 6.21215968 -2 4 C-1.34 2.68 -0.68 1.36 0 0 Z " fill="#EFEFEF" transform="translate(292,80)"/>
<path d="M0 0 C3.16634636 -0.11760715 6.33212074 -0.18771024 9.5 -0.25 C10.386875 -0.28351563 11.27375 -0.31703125 12.1875 -0.3515625 C18.58182101 -0.44559663 22.49419338 0.73253533 28 4 C28 4.66 28 5.32 28 6 C28.598125 6.2475 29.19625 6.495 29.8125 6.75 C32.28647521 8.16370012 33.43370255 9.65055383 35 12 C33.68 12 32.36 12 31 12 C31 11.01 31 10.02 31 9 C26.6960081 7.25150329 22.35249409 5.6229639 18 4 C18 3.34 18 2.68 18 2 C15.70800823 2.14063135 13.41640814 2.28765943 11.125 2.4375 C9.84882813 2.51871094 8.57265625 2.59992188 7.2578125 2.68359375 C4.11699848 2.79206027 4.11699848 2.79206027 2 4 C0.00039988 4.039992 -2.00047242 4.04346799 -4 4 C-3.67 3.34 -3.34 2.68 -3 2 C-2.01 2 -1.02 2 0 2 C0 1.34 0 0.68 0 0 Z " fill="#693970" transform="translate(208,120)"/>
<path d="M0 0 C0.969375 0.495 1.93875 0.99 2.9375 1.5 C5.58132408 3.07331124 5.58132408 3.07331124 7 3 C7.33 3.99 7.66 4.98 8 6 C8.66 6.33 9.32 6.66 10 7 C9.67 8.65 9.34 10.3 9 12 C7.68 11.67 6.36 11.34 5 11 C3.35 13.31 1.7 15.62 0 18 C-0.66 17.67 -1.32 17.34 -2 17 C-1.7834375 16.30132812 -1.566875 15.60265625 -1.34375 14.8828125 C-1.0653125 13.97273437 -0.786875 13.06265625 -0.5 12.125 C-0.2215625 11.22007812 0.056875 10.31515625 0.34375 9.3828125 C1.08850794 7.09055353 1.08850794 7.09055353 1 5 C0.01 4.67 -0.98 4.34 -2 4 C-1.34 2.68 -0.68 1.36 0 0 Z " fill="#F6F6F6" transform="translate(281,193)"/>
<path d="M0 0 C1.37562854 1.28965176 2.70766393 2.62689293 4 4 C4 4.66 4 5.32 4 6 C4.639375 6.268125 5.27875 6.53625 5.9375 6.8125 C8 8 8 8 9 11 C9.73347656 11.12246094 10.46695313 11.24492187 11.22265625 11.37109375 C13.90947928 11.97950234 15.96866486 12.86873049 18.4375 14.0625 C24.84599792 16.74805813 31.16700792 16.35444916 38 16 C35.5060913 18.4939087 33.95138808 18.28187551 30.54052734 18.32910156 C29.46859131 18.32088379 29.46859131 18.32088379 28.375 18.3125 C27.28566162 18.30621582 27.28566162 18.30621582 26.17431641 18.29980469 C17.53450748 18.11742381 10.61236646 15.52773588 4.296875 9.328125 C0 4.6296729 0 4.6296729 0 0 Z " fill="#73396D" transform="translate(132,132)"/>
<path d="M0 0 C1.485 0.99 1.485 0.99 3 2 C3 2.66 3 3.32 3 4 C3.66 4 4.32 4 5 4 C10.70514994 19.20488797 10.70514994 19.20488797 10 27 C9.01 28.32 8.02 29.64 7 31 C6.67 26.05 6.34 21.1 6 16 C5.34 16 4.68 16 4 16 C3.87882813 15.34773437 3.75765625 14.69546875 3.6328125 14.0234375 C2.71056011 9.21353658 1.69832723 4.60974535 0 0 Z " fill="#46386E" transform="translate(243,132)"/>
<path d="M0 0 C3.45925163 1.2491742 6.14693203 2.67527795 9 5 C8.34 6.65 7.68 8.3 7 10 C6.01 9.67 5.02 9.34 4 9 C2.9790625 9.2784375 2.9790625 9.2784375 1.9375 9.5625 C0.9784375 9.7790625 0.9784375 9.7790625 0 10 C-0.66 9.34 -1.32 8.68 -2 8 C-4.10820797 8.3185177 -4.10820797 8.3185177 -6 9 C-2.25 2.25 -2.25 2.25 0 0 Z " fill="#0E0E0E" transform="translate(272,194)"/>
<path d="M0 0 C0.103125 0.639375 0.20625 1.27875 0.3125 1.9375 C0.6528125 2.9584375 0.6528125 2.9584375 1 4 C1.99 4.33 2.98 4.66 4 5 C1.6163187 9.34170523 -0.78119883 13.2064129 -4 17 C-5.65 15.68 -7.3 14.36 -9 13 C-8.43410156 12.22914062 -7.86820312 11.45828125 -7.28515625 10.6640625 C-6.55167969 9.66117188 -5.81820312 8.65828125 -5.0625 7.625 C-4.33160156 6.62726563 -3.60070312 5.62953125 -2.84765625 4.6015625 C-1.0220431 2.17182891 -1.0220431 2.17182891 0 0 Z " fill="#EAEAEA" transform="translate(81,84)"/>
<path d="M0 0 C1.3921875 0.495 1.3921875 0.495 2.8125 1 C5.92029291 2.14967004 5.92029291 2.14967004 9 2 C8.175 2.94875 7.35 3.8975 6.5 4.875 C3.13897238 8.78819645 -0.06772985 12.81633254 -3.265625 16.86328125 C-5 19 -5 19 -7 21 C-6.2791947 15.95436288 -4.13676773 12.6239539 -1.25 8.5 C0.26231585 5.4753683 -0.11628426 4.18137667 -1 1 C-0.67 0.67 -0.34 0.34 0 0 Z " fill="#F6F0EF" transform="translate(138,80)"/>
<path d="M0 0 C0.33 0 0.66 0 1 0 C1.25394531 1.28777344 1.50789063 2.57554687 1.76953125 3.90234375 C2.11648992 5.58087351 2.46418424 7.25925133 2.8125 8.9375 C3.0609668 10.21270508 3.0609668 10.21270508 3.31445312 11.51367188 C3.5706543 12.72700195 3.5706543 12.72700195 3.83203125 13.96484375 C3.98389893 14.7137085 4.1357666 15.46257324 4.29223633 16.23413086 C4.52579834 16.81686768 4.75936035 17.39960449 5 18 C5.99 18.33 6.98 18.66 8 19 C8.061875 19.7425 8.12375 20.485 8.1875 21.25 C8.75456491 24.18803254 8.75456491 24.18803254 11.375 25.75 C15.04505531 28.8957617 15.7983675 32.42793486 17 37 C8.4616953 30.77415282 4.05271469 21.2842873 0.9375 11.4375 C0.72158203 10.75913086 0.50566406 10.08076172 0.28320312 9.38183594 C-0.71621073 5.95601009 -1.36809335 3.38151376 0 0 Z " fill="#153E7A" transform="translate(124,144)"/>
<path d="M0 0 C1.26339822 3.79019466 0.49719015 5.37522384 -1 9 C-1.99 9.495 -1.99 9.495 -3 10 C-3.65772428 13.02934491 -3.65772428 13.02934491 -4 16 C-4.99 15.67 -5.98 15.34 -7 15 C-9.35188447 15.59793673 -11.68925595 16.25881795 -14 17 C-14 16.01 -14 15.02 -14 14 C-12.35024105 12.8552693 -10.69682697 11.71536993 -9.0234375 10.60546875 C-5.33382952 7.67799987 -2.72747872 3.80520587 0 0 Z " fill="#F3F7F5" transform="translate(243,175)"/>
<path d="M0 0 C-3.53719598 1.23678181 -5.65139712 0.71226436 -9.1875 -0.375 C-20.43507516 -3.38627012 -32.42184191 -3.22506139 -44 -3 C-44 -3.33 -44 -3.66 -44 -4 C-29.44419138 -7.23138628 -13.68108026 -5.60899904 0 0 Z " fill="#AC3C46" transform="translate(217,73)"/>
<path d="M0 0 C1.32 0.33 2.64 0.66 4 1 C4 2.32 4 3.64 4 5 C4.99 5.33 5.98 5.66 7 6 C7.80911705 8.69705684 8.45286392 11.25379774 9 14 C9.20625 14.78375 9.4125 15.5675 9.625 16.375 C10.22421219 20.56948536 10.07391281 24.77054474 10 29 C9.67 29 9.34 29 9 29 C8.85304687 28.05640625 8.70609375 27.1128125 8.5546875 26.140625 C7.14524807 18.07279929 5.22736827 11.54131359 1.20703125 4.29296875 C0 2 0 2 0 0 Z " fill="#F7DFE0" transform="translate(247,99)"/>
<path d="M0 0 C1.32 0.33 2.64 0.66 4 1 C2.68552225 4.56425699 1.11594205 7.59724634 -1 10.75 C-1.515625 11.52859375 -2.03125 12.3071875 -2.5625 13.109375 C-4 15 -4 15 -6 16 C-6.66 15.67 -7.32 15.34 -8 15 C-7.875 13.3125 -7.875 13.3125 -7 11 C-5.989375 10.175 -4.97875 9.35 -3.9375 8.5 C-2.968125 7.675 -1.99875 6.85 -1 6 C-1 4.68 -1 3.36 -1 2 C-0.67 1.34 -0.34 0.68 0 0 Z M-10 15 C-8 16 -8 16 -8 16 Z " fill="#F2F2F2" transform="translate(90,73)"/>
<path d="M0 0 C11.31998678 4.79293057 20.73581893 13.0805047 28 23 C28.71484375 25.26171875 28.71484375 25.26171875 29 27 C25.35219382 23.4627334 22.02006415 19.75360964 18.74609375 15.8671875 C17.03191411 13.91740995 17.03191411 13.91740995 14.78515625 12.3828125 C14.19605469 11.92648438 13.60695312 11.47015625 13 11 C13 10.34 13 9.68 13 9 C10.97833874 7.97781172 8.95415114 6.97898948 6.89453125 6.03515625 C6.20746094 5.71417969 5.52039063 5.39320312 4.8125 5.0625 C4.11769531 4.74410156 3.42289063 4.42570312 2.70703125 4.09765625 C1 3 1 3 0 0 Z " fill="#9F303C" transform="translate(218,74)"/>
<path d="M0 0 C0.33 1.65 0.66 3.3 1 5 C-4.75 3.125 -4.75 3.125 -7 2 C-8.5195764 1.84876169 -10.04472502 1.75118307 -11.5703125 1.68359375 C-12.46621094 1.64169922 -13.36210937 1.59980469 -14.28515625 1.55664062 C-15.22230469 1.51732422 -16.15945312 1.47800781 -17.125 1.4375 C-18.06988281 1.39431641 -19.01476562 1.35113281 -19.98828125 1.30664062 C-22.32537092 1.20040928 -24.6625683 1.09836824 -27 1 C-19.95793162 -3.69471225 -8.13697689 -0.91316775 0 0 Z " fill="#B63750" transform="translate(235,119)"/>
<path d="M0 0 C4.49797113 1.68673918 8.72886302 3.81673892 13 6 C7.7410248 8.66775457 7.7410248 8.66775457 5 9 C2.25 8.0625 2.25 8.0625 0 7 C0 4.69 0 2.38 0 0 Z " fill="#EAF2F7" transform="translate(151,191)"/>
<path d="M0 0 C3.3 0.33 6.6 0.66 10 1 C10 1.66 10 2.32 10 3 C12.64 3 15.28 3 18 3 C18.33 3.99 18.66 4.98 19 6 C21.475 6.495 21.475 6.495 24 7 C23.67 8.32 23.34 9.64 23 11 C21.92621094 10.44570312 20.85242188 9.89140625 19.74609375 9.3203125 C18.31006109 8.58821742 16.87385382 7.85646477 15.4375 7.125 C14.38079102 6.57779297 14.38079102 6.57779297 13.30273438 6.01953125 C8.92534485 3.80057803 4.76358139 2.18933044 0 1 C0 0.67 0 0.34 0 0 Z " fill="#F8E0DF" transform="translate(205,69)"/>
<path d="M0 0 C4.66666667 4 9.33333333 8 14 12 C10.98968256 12.93423645 10.13349732 13.04449911 7 12 C7 11.34 7 10.68 7 10 C6.401875 9.95875 5.80375 9.9175 5.1875 9.875 C3 9 3 9 1.25 6.125 C0 3 0 3 0 0 Z " fill="#DEEFF9" transform="translate(137,178)"/>
<path d="M0 0 C1.08203125 1.7734375 1.08203125 1.7734375 2 4 C-0.6563713 11.33664453 -5.66194109 16.43381892 -11 22 C-11.33 21.34 -11.66 20.68 -12 20 C-11.54625 19.5875 -11.0925 19.175 -10.625 18.75 C-8.93212913 16.92690829 -8.07658236 15.22493688 -7 13 C-6.34 12.34 -5.68 11.68 -5 11 C-5 10.01 -5 9.02 -5 8 C-4.360625 7.79375 -3.72125 7.5875 -3.0625 7.375 C-0.65074923 6.10461791 -0.65074923 6.10461791 -0.25 2.875 C-0.1675 1.92625 -0.085 0.9775 0 0 Z " fill="#0F3576" transform="translate(248,161)"/>
<path d="M0 0 C2.35284 0.52285333 4.39962011 1.17126576 6.625 2.125 C7.40875 2.41375 8.1925 2.7025 9 3 C9.66 2.67 10.32 2.34 11 2 C11 2.99 11 3.98 11 5 C10.01 5.33 9.02 5.66 8 6 C7.34 5.67 6.68 5.34 6 5 C6 6.65 6 8.3 6 10 C3 8.375 3 8.375 0 6 C-0.375 2.75 -0.375 2.75 0 0 Z " fill="#E8E8E8" transform="translate(290,200)"/>
<path d="M0 0 C1.4540625 0.0309375 1.4540625 0.0309375 2.9375 0.0625 C-0.79720101 3.10558971 -4.52918034 4.55139345 -9.0625 6.0625 C-9.76187532 7.37897119 -10.42979133 8.71272151 -11.0625 10.0625 C-12.0525 10.5575 -12.0525 10.5575 -13.0625 11.0625 C-12.7325 8.0925 -12.4025 5.1225 -12.0625 2.0625 C-9.12443103 1.08314368 -7.10972362 1.0625 -4.0625 1.0625 C-3.0625 0.0625 -3.0625 0.0625 0 0 Z " fill="#AB3757" transform="translate(205.0625,120.9375)"/>
<path d="M0 0 C0 0.99 0 1.98 0 3 C-2.66666667 3.66666667 -5.33333333 4.33333333 -8 5 C-8.74765625 5.18691406 -9.4953125 5.37382813 -10.265625 5.56640625 C-10.83796875 5.70949219 -11.4103125 5.85257812 -12 6 C-12 6.66 -12 7.32 -12 8 C-15.13498292 9.85776765 -17.37471432 10.20140476 -21 10 C-15.59706389 5.27243091 -7.43990453 0 0 0 Z " fill="#AB404A" transform="translate(172,70)"/>
<path d="M0 0 C0.99 0.33 1.98 0.66 3 1 C1.89718873 2.27200971 0.79269231 3.54255853 -0.3125 4.8125 C-0.92738281 5.52019531 -1.54226562 6.22789062 -2.17578125 6.95703125 C-2.77777344 7.63121094 -3.37976563 8.30539063 -4 9 C-4.5053125 9.5671875 -5.010625 10.134375 -5.53125 10.71875 C-7.76485456 12.66721356 -10.12580045 12.68064449 -13 13 C-13.33 13.99 -13.66 14.98 -14 16 C-15.65 16 -17.3 16 -19 16 C-17.625 14.5 -17.625 14.5 -16 13 C-15.34 13 -14.68 13 -14 13 C-14 12.34 -14 11.68 -14 11 C-12.02 11 -10.04 11 -8 11 C-7.67 10.01 -7.34 9.02 -7 8 C-6.195625 7.360625 -5.39125 6.72125 -4.5625 6.0625 C-2.10694869 4.08608065 -1.12960279 2.87535256 0 0 Z " fill="#A13B61" transform="translate(189,132)"/>
<path d="M0 0 C3.2601206 2.9100866 4.85085989 5.39160619 6.3125 9.5 C6.65925781 10.4384375 7.00601563 11.376875 7.36328125 12.34375 C8.01541747 15.06431829 7.94708704 16.40925868 7 19 C6.34 19 5.68 19 5 19 C4.35377959 16.58343624 3.70800996 14.16675354 3.0625 11.75 C2.88009766 11.06808594 2.69769531 10.38617188 2.50976562 9.68359375 C1.64946879 6.46139106 0.79316866 3.23946777 0 0 Z " fill="#AE3845" transform="translate(247,102)"/>
<path d="M0 0 C4.875 0.875 4.875 0.875 6 2 C6.38394561 9.80689408 6.38394561 9.80689408 4 14 C0.74031891 4.58997722 0.74031891 4.58997722 0 0 Z " fill="#CA2D38" transform="translate(249,136)"/>
<path d="M0 0 C1.32 1.65 2.64 3.3 4 5 C3.01 6.98 2.02 8.96 1 11 C-3 6.5 -3 6.5 -3 2 C-2.01 1.34 -1.02 0.68 0 0 Z " fill="#E8E8E8" transform="translate(86,213)"/>
<path d="M0 0 C1.86754566 3.73509132 0.94896004 8.31910264 0.83984375 12.421875 C1.00081904 16.01829849 1.80105997 18.63356447 3 22 C3 23.32 3 24.64 3 26 C2.34 26 1.68 26 1 26 C1 24.68 1 23.36 1 22 C0.34 22 -0.32 22 -1 22 C-1.22595954 18.89685213 -1.42770896 15.79259193 -1.625 12.6875 C-1.68945312 11.80642578 -1.75390625 10.92535156 -1.8203125 10.01757812 C-1.871875 9.17001953 -1.9234375 8.32246094 -1.9765625 7.44921875 C-2.02893066 6.66893311 -2.08129883 5.88864746 -2.13525391 5.0847168 C-2 3 -2 3 0 0 Z " fill="#7C3963" transform="translate(129,106)"/>
<path d="M0 0 C0.66 0.99 1.32 1.98 2 3 C0.68 4.32 -0.64 5.64 -2 7 C-3.32 6.34 -4.64 5.68 -6 5 C-7.50930183 8.3863251 -7.50930183 8.3863251 -8 12 C-8.66 12 -9.32 12 -10 12 C-10.33 12.66 -10.66 13.32 -11 14 C-12 11 -12 11 -11.25 9.24609375 C-8.9125451 5.86408868 -7.24415849 3.70266063 -3.1875 2.5625 C-2.135625 2.376875 -1.08375 2.19125 0 2 C0 1.34 0 0.68 0 0 Z " fill="#E8E8E8" transform="translate(301,207)"/>
<path d="M0 0 C2.25245881 2.68841859 3.88213958 4.64641875 5 8 C6.65 7.67 8.3 7.34 10 7 C9 9 9 9 5.9375 10.125 C4.4834375 10.558125 4.4834375 10.558125 3 11 C3 10.34 3 9.68 3 9 C2.34 8.67 1.68 8.34 1 8 C1.33 7.67 1.66 7.34 2 7 C0.35 6.67 -1.3 6.34 -3 6 C-3 3 -3 3 -1.5 1.3125 C-0.7575 0.6628125 -0.7575 0.6628125 0 0 Z " fill="#EDEDED" transform="translate(294,49)"/>
<path d="M0 0 C0 0.66 0 1.32 0 2 C-8.46561098 3.12298921 -16.51200811 2.80542989 -25 2 C-25 1.67 -25 1.34 -25 1 C-24.44538086 0.97494385 -23.89076172 0.9498877 -23.31933594 0.92407227 C-20.79601157 0.80772073 -18.27302464 0.68517246 -15.75 0.5625 C-14.87730469 0.52318359 -14.00460938 0.48386719 -13.10546875 0.44335938 C-12.26113281 0.40146484 -11.41679687 0.35957031 -10.546875 0.31640625 C-9.77182617 0.27974854 -8.99677734 0.24309082 -8.19824219 0.20532227 C-5.98417268 0.06114677 -5.98417268 0.06114677 -3.84082031 -0.58227539 C-2 -1 -2 -1 0 0 Z " fill="#BFD3E6" transform="translate(208,201)"/>
<path d="M0 0 C2.0625 2.3125 2.0625 2.3125 4 5 C3 8 3 8 0.9375 9.1875 C0.298125 9.455625 -0.34125 9.72375 -1 10 C-3 7 -3 7 -3 3 C-1.5 1.25 -1.5 1.25 0 0 Z " fill="#E7E7E7" transform="translate(63,178)"/>
<path d="M0 0 C2.8125 0.1875 2.8125 0.1875 6 1 C7.75 3.5 7.75 3.5 9 6 C9.66 6.33 10.32 6.66 11 7 C11.625 10.0625 11.625 10.0625 12 13 C10.85872377 11.85872377 9.71776264 10.71713121 8.578125 9.57421875 C7.42694314 8.42588635 6.26987213 7.28344889 5.109375 6.14453125 C4.47515625 5.51933594 3.8409375 4.89414063 3.1875 4.25 C2.58292969 3.65703125 1.97835937 3.0640625 1.35546875 2.453125 C0 1 0 1 0 0 Z " fill="#F8DDDD" transform="translate(233,83)"/>
<path d="M0 0 C0.99 0 1.98 0 3 0 C3.6875 2.8125 3.6875 2.8125 4 6 C2.5625 7.875 2.5625 7.875 1 9 C0.01 8.34 -0.98 7.68 -2 7 C-2.99 7.495 -2.99 7.495 -4 8 C-2.87548273 5.0280615 -1.77706209 2.66559313 0 0 Z " fill="#EDEDED" transform="translate(103,51)"/>
<path d="M0 0 C4.95 0.99 4.95 0.99 10 2 C10 2.66 10 3.32 10 4 C10.598125 4.2475 11.19625 4.495 11.8125 4.75 C14.28647521 6.16370012 15.43370255 7.65055383 17 10 C15.68 10 14.36 10 13 10 C13 9.01 13 8.02 13 7 C8.6960081 5.25150329 4.35249409 3.6229639 0 2 C0 1.34 0 0.68 0 0 Z " fill="#323B79" transform="translate(226,122)"/>
<path d="M0 0 C0.66 0.33 1.32 0.66 2 1 C-2.38665664 4.99999086 -6.65108108 8.37798092 -12 11 C-12.66 10.67 -13.32 10.34 -14 10 C-12.824375 9.1028125 -12.824375 9.1028125 -11.625 8.1875 C-8.85425677 6.08914751 -8.85425677 6.08914751 -7 3 C-5.02111039 2.27306096 -3.02045442 1.60183749 -1 1 C-0.67 0.67 -0.34 0.34 0 0 Z " fill="#092C68" transform="translate(233,184)"/>
<path d="M0 0 C0.33 0 0.66 0 1 0 C1.12117188 0.7734375 1.24234375 1.546875 1.3671875 2.34375 C2.32852312 8.31882059 3.42659541 14.15592579 5 20 C2.26551011 18.38735212 0.32613932 17.11880905 -0.58984375 13.9765625 C-1.19165851 9.14555634 -0.91280639 4.7668778 0 0 Z " fill="#CADFEF" transform="translate(122,140)"/>
<path d="M0 0 C1.485 0.99 1.485 0.99 3 2 C3 2.66 3 3.32 3 4 C3.66 4 4.32 4 5 4 C5.33 7.96 5.66 11.92 6 16 C5.34 16 4.68 16 4 16 C3.87882813 15.34773437 3.75765625 14.69546875 3.6328125 14.0234375 C2.71056011 9.21353658 1.69832723 4.60974535 0 0 Z " fill="#2D3B84" transform="translate(243,132)"/>
<path d="M0 0 C1.32 0.33 2.64 0.66 4 1 C3.45730469 1.60328125 2.91460937 2.2065625 2.35546875 2.828125 C1.28232422 4.02695313 1.28232422 4.02695313 0.1875 5.25 C-0.52019531 6.03890625 -1.22789062 6.8278125 -1.95703125 7.640625 C-3.74168935 9.7016833 -5.39759062 11.79605523 -7 14 C-6.18836907 8.31858349 -3.46566761 4.45585836 0 0 Z " fill="#FCE8E5" transform="translate(138,87)"/>
<path d="M0 0 C0.66 0 1.32 0 2 0 C1 3 1 3 -0.57421875 4.16796875 C-7.64643652 7.57988897 -14.26390245 7.39615862 -22 7 C-22 6.67 -22 6.34 -22 6 C-21.21496094 5.95101562 -20.42992187 5.90203125 -19.62109375 5.8515625 C-9.74932434 5.56680787 -9.74932434 5.56680787 -1.1875 1.375 C-0.795625 0.92125 -0.40375 0.4675 0 0 Z " fill="#523873" transform="translate(178,144)"/>
<path d="M0 0 C1.32 0 2.64 0 4 0 C4 2.31 4 4.62 4 7 C3.34 6.67 2.68 6.34 2 6 C2 9.3 2 12.6 2 16 C-0.05279359 11.89441282 -0.2216942 10.19793315 -0.125 5.75 C-0.10695312 4.67234375 -0.08890625 3.5946875 -0.0703125 2.484375 C-0.04710937 1.66453125 -0.02390625 0.8446875 0 0 Z " fill="#CA2D3C" transform="translate(130,112)"/>
<path d="M0 0 C0.66 0.33 1.32 0.66 2 1 C0.92598892 3.91517292 0.22189824 5.77810176 -2 8 C-2.33 8.99 -2.66 9.98 -3 11 C-5.0625 12.6875 -5.0625 12.6875 -7 14 C-7 10.11708254 -5.62139506 8.53247465 -3.5 5.3125 C-2.8503125 4.31863281 -2.200625 3.32476562 -1.53125 2.30078125 C-0.77328125 1.16189453 -0.77328125 1.16189453 0 0 Z " fill="#E4E4E4" transform="translate(272,213)"/>
<path d="M0 0 C1.20366211 0.00483398 1.20366211 0.00483398 2.43164062 0.00976562 C3.68170898 0.02233398 3.68170898 0.02233398 4.95703125 0.03515625 C5.80201172 0.03966797 6.64699219 0.04417969 7.51757812 0.04882812 C9.6015928 0.06060222 11.68557102 0.07853735 13.76953125 0.09765625 C13.76953125 0.42765625 13.76953125 0.75765625 13.76953125 1.09765625 C12.78210938 1.15824219 11.7946875 1.21882813 10.77734375 1.28125 C9.49601562 1.36503906 8.2146875 1.44882813 6.89453125 1.53515625 C5.61835938 1.61636719 4.3421875 1.69757813 3.02734375 1.78125 C-0.11347027 1.88971652 -0.11347027 1.88971652 -2.23046875 3.09765625 C-4.23006887 3.13764825 -6.23094117 3.14112424 -8.23046875 3.09765625 C-6.49780437 -0.36767252 -3.47924994 -0.02467553 0 0 Z " fill="#2B3980" transform="translate(212.23046875,120.90234375)"/>
<path d="M0 0 C5.87024368 2.67865488 10.76646153 5.06087179 15 10 C14.01 10.495 14.01 10.495 13 11 C13 10.34 13 9.68 13 9 C10.97833874 7.97781172 8.95415114 6.97898948 6.89453125 6.03515625 C6.20746094 5.71417969 5.52039063 5.39320312 4.8125 5.0625 C4.11769531 4.74410156 3.42289063 4.42570312 2.70703125 4.09765625 C1 3 1 3 0 0 Z " fill="#A9414B" transform="translate(218,74)"/>
<path d="M0 0 C0.66 0.66 1.32 1.32 2 2 C-2.95 4.97 -2.95 4.97 -8 8 C-9 6 -9 6 -8.5 4 C-6.24930507 0.99907343 -3.55359122 0.78968694 0 0 Z " fill="#FCE7E8" transform="translate(156,74)"/>
<path d="M0 0 C0.99 0.66 1.98 1.32 3 2 C1.43370627 5.35634371 -0.38341923 7.38341923 -3 10 C-3.66 9.67 -4.32 9.34 -5 9 C-3.50163895 5.88801935 -1.80066242 2.9465385 0 0 Z " fill="#111111" transform="translate(320,182)"/>
<path d="M0 0 C1.32 0 2.64 0 4 0 C3.5206753 4.31392226 2.2542015 6.16569547 -1 9 C-1.66 7.35 -2.32 5.7 -3 4 C-2.34 3.67 -1.68 3.34 -1 3 C-0.67 2.01 -0.34 1.02 0 0 Z " fill="#F1F1F1" transform="translate(300,174)"/>
<path d="M0 0 C10.395 0.99 10.395 0.99 21 2 C21 2.33 21 2.66 21 3 C18.06195004 3.08086376 15.12611925 3.1404283 12.1875 3.1875 C11.35412109 3.21263672 10.52074219 3.23777344 9.66210938 3.26367188 C8.45844727 3.27817383 8.45844727 3.27817383 7.23046875 3.29296875 C6.12288208 3.31653442 6.12288208 3.31653442 4.99291992 3.34057617 C3 3 3 3 0 0 Z " fill="#133F8B" transform="translate(148,149)"/>
<path d="M0 0 C3.05906926 2.51066469 3.75191278 4.90059933 4.6875 8.6875 C5.06455078 10.17830078 5.06455078 10.17830078 5.44921875 11.69921875 C5.63097656 12.45847656 5.81273437 13.21773437 6 14 C5.34 14.66 4.68 15.32 4 16 C0.7938782 12.7938782 0.65943826 4.28634869 0 0 Z " fill="#AE374F" transform="translate(249,140)"/>
<path d="M0 0 C0.66 0.33 1.32 0.66 2 1 C2 1.66 2 2.32 2 3 C1.34 3 0.68 3 0 3 C0.0825 3.763125 0.165 4.52625 0.25 5.3125 C0 8 0 8 -1.875 9.8125 C-4 11 -4 11 -6 11 C-4.54955729 6.89041233 -2.48889248 3.56741255 0 0 Z " fill="#E6E6E6" transform="translate(96,92)"/>
<path d="M0 0 C3 1 3 1 5 4 C4.75 6.125 4.75 6.125 4 8 C3.01 8.495 3.01 8.495 2 9 C1.87625 8.195625 1.7525 7.39125 1.625 6.5625 C1.315625 5.2940625 1.315625 5.2940625 1 4 C0.34 3.67 -0.32 3.34 -1 3 C-0.67 2.01 -0.34 1.02 0 0 Z " fill="#131313" transform="translate(310,85)"/>
<path d="M0 0 C0 0.99 0 1.98 0 3 C-4.58031088 5.99481865 -4.58031088 5.99481865 -7 7 C-9.4375 6.25 -9.4375 6.25 -11 5 C-8.49751135 3.33167423 -6.58850813 2.37618326 -3.8125 1.375 C-3.09707031 1.11460937 -2.38164062 0.85421875 -1.64453125 0.5859375 C-1.10183594 0.39257812 -0.55914062 0.19921875 0 0 Z " fill="#D7E9F4" transform="translate(220,195)"/>
<path d="M0 0 C0.66 0.33 1.32 0.66 2 1 C1.875 2.875 1.875 2.875 1 5 C-2.0625 6.25 -2.0625 6.25 -5 7 C-5.33 6.01 -5.66 5.02 -6 4 C-4.02 2.68 -2.04 1.36 0 0 Z " fill="#E9E9E9" transform="translate(92,240)"/>
<path d="M0 0 C0.66 0 1.32 0 2 0 C0.14285714 7.57142857 0.14285714 7.57142857 -3 10 C-3.75 8.375 -3.75 8.375 -4 6 C-2.1875 2.75 -2.1875 2.75 0 0 Z " fill="#EDEDED" transform="translate(320,202)"/>
<path d="M0 0 C-2.26562673 2.26562673 -3.84160705 2.94462749 -7.04296875 3.09765625 C-7.75066406 3.08605469 -8.45835937 3.07445312 -9.1875 3.0625 C-11.0746875 3.0315625 -11.0746875 3.0315625 -13 3 C-13.33 2.34 -13.66 1.68 -14 1 C-9.27616037 0.34843591 -4.78025483 -0.11950637 0 0 Z " fill="#0A377E" transform="translate(211,198)"/>
<path d="M0 0 C0.99 0.33 1.98 0.66 3 1 C3 1.66 3 2.32 3 3 C4.32 3.33 5.64 3.66 7 4 C7.33 5.32 7.66 6.64 8 8 C5.62051228 7.82374165 4.29774151 7.30280227 2.62109375 5.59765625 C1.37884514 4.09350908 0.18623944 2.54870149 -1 1 C-0.67 0.67 -0.34 0.34 0 0 Z " fill="#0D3E7D" transform="translate(142,180)"/>
<path d="M0 0 C1.27162597 3.8148779 0.64661571 5.3931275 -1 9 C-3.125 9.875 -3.125 9.875 -5 10 C-5 4.69520066 -3.4637943 3.81017373 0 0 Z " fill="#D2E4F0" transform="translate(243,175)"/>
<path d="M0 0 C0.33 0 0.66 0 1 0 C1.125 5.75 1.125 5.75 0 8 C-0.22622081 9.70363822 -0.40888473 11.41328701 -0.5625 13.125 C-0.64628906 14.03507812 -0.73007813 14.94515625 -0.81640625 15.8828125 C-0.87699219 16.58148438 -0.93757812 17.28015625 -1 18 C-1.33 18 -1.66 18 -2 18 C-2.054138 15.75026553 -2.09285491 13.50015617 -2.125 11.25 C-2.14820313 9.99703125 -2.17140625 8.7440625 -2.1953125 7.453125 C-2.01537302 4.27179508 -1.68998582 2.63478104 0 0 Z " fill="#B63451" transform="translate(131,104)"/>
<path d="M0 0 C0.66 0.33 1.32 0.66 2 1 C1.67 2.98 1.34 4.96 1 7 C-2 6 -2 6 -3.1875 3.9375 C-3.5896875 2.9784375 -3.5896875 2.9784375 -4 2 C-2.125 0.9375 -2.125 0.9375 0 0 Z " fill="#F9F9F9" transform="translate(92,193)"/>
<path d="M0 0 C0.33 0 0.66 0 1 0 C1 3.3 1 6.6 1 10 C0.01 9.67 -0.98 9.34 -2 9 C-2 9.66 -2 10.32 -2 11 C-2.66 11 -3.32 11 -4 11 C-2.7874262 7.27566618 -1.49140021 3.62197194 0 0 Z " fill="#E6D8DE" transform="translate(253,156)"/>
<path d="M0 0 C0.99 0 1.98 0 3 0 C3 1.32 3 2.64 3 4 C4.65 4.33 6.3 4.66 8 5 C8.33 6.65 8.66 8.3 9 10 C7 10 7 10 5.2734375 8.3203125 C4.64695313 7.59585938 4.02046875 6.87140625 3.375 6.125 C2.74335938 5.40570313 2.11171875 4.68640625 1.4609375 3.9453125 C0 2 0 2 0 0 Z " fill="#B8334B" transform="translate(134,133)"/>
<path d="M0 0 C1.32 0 2.64 0 4 0 C4.33 1.32 4.66 2.64 5 4 C3.02 4.66 1.04 5.32 -1 6 C-0.67 4.02 -0.34 2.04 0 0 Z " fill="#FAFAFA" transform="translate(296,205)"/>
<path d="M0 0 C0.33 0.99 0.66 1.98 1 3 C-3.39453125 7.00390625 -3.39453125 7.00390625 -5 8 C-5.99 7.67 -6.98 7.34 -8 7 C-5.36 4.69 -2.72 2.38 0 0 Z " fill="#E3E3E3" transform="translate(285,227)"/>
<path d="M0 0 C-0.66 1.32 -1.32 2.64 -2 4 C-4.3431213 3.74438677 -6.67843403 3.40729228 -9 3 C-9.33 2.34 -9.66 1.68 -10 1 C-8.71073008 0.63720544 -7.41846728 0.28503302 -6.125 -0.0625 C-5.40570313 -0.25972656 -4.68640625 -0.45695313 -3.9453125 -0.66015625 C-2 -1 -2 -1 0 0 Z " fill="#184E99" transform="translate(158,187)"/>
<path d="M0 0 C-2 3 -2 3 -5 4 C-5.66 4.99 -6.32 5.98 -7 7 C-7.625 5.1875 -7.625 5.1875 -8 3 C-5.45189726 -0.82215411 -4.39145359 -1.46381786 0 0 Z " fill="#C33248" transform="translate(194,129)"/>
<path d="M0 0 C0.33 0 0.66 0 1 0 C1 3.96 1 7.92 1 12 C-2 8 -2 8 -1.75 4.3125 C-1 1 -1 1 0 0 Z " fill="#373E68" transform="translate(127,110)"/>
<path d="M0 0 C0.33 0.66 0.66 1.32 1 2 C0.06421005 4.35981813 -0.93347808 6.69631264 -2 9 C-2.66 8.34 -3.32 7.68 -4 7 C-4 5.68 -4 4.36 -4 3 C-2 1.25 -2 1.25 0 0 Z " fill="#EFFBF5" transform="translate(134,88)"/>
<path d="M0 0 C0.66 0.33 1.32 0.66 2 1 C1.34 2.98 0.68 4.96 0 7 C-0.99 6.67 -1.98 6.34 -3 6 C-2.42655063 3.13275314 -2.1385485 2.1385485 0 0 Z M-5 6 C-3 7 -3 7 -3 7 Z " fill="#FAFAFA" transform="translate(85,82)"/>
<path d="M0 0 C0.66 0 1.32 0 2 0 C2.66 0.99 3.32 1.98 4 3 C3.67 3.99 3.34 4.98 3 6 C0 6 0 6 -3 4 C-2.34 4 -1.68 4 -1 4 C-0.67 2.68 -0.34 1.36 0 0 Z " fill="#111111" transform="translate(291,26)"/>
<path d="M0 0 C2.91517292 1.07401108 4.77810176 1.77810176 7 4 C6.67 4.66 6.34 5.32 6 6 C3.5625 5.25 3.5625 5.25 1 4 C0.1875 1.875 0.1875 1.875 0 0 Z " fill="#DDEDF8" transform="translate(151,191)"/>
<path d="M0 0 C2.475 0.495 2.475 0.495 5 1 C5.33 2.32 5.66 3.64 6 5 C5.34 5 4.68 5 4 5 C3.67 5.66 3.34 6.32 3 7 C0 3.375 0 3.375 0 0 Z " fill="#0E0E0E" transform="translate(302,89)"/>
<path d="M0 0 C1.65 1.65 3.3 3.3 5 5 C4.34 5.66 3.68 6.32 3 7 C0 5 0 5 -0.75 2.9375 C-0.8325 2.298125 -0.915 1.65875 -1 1 C-0.67 0.67 -0.34 0.34 0 0 Z " fill="#E9E9E9" transform="translate(65,213)"/>
<path d="M0 0 C1.65 0 3.3 0 5 0 C4.360625 0.268125 3.72125 0.53625 3.0625 0.8125 C0.66868314 1.88667752 0.66868314 1.88667752 0 5 C-1.65 5 -3.3 5 -5 5 C-3.625 3.5 -3.625 3.5 -2 2 C-1.34 2 -0.68 2 0 2 C0 1.34 0 0.68 0 0 Z " fill="#B3384E" transform="translate(175,143)"/>
<path d="M0 0 C0.66 0.33 1.32 0.66 2 1 C1.34 1.66 0.68 2.32 0 3 C-0.99 3 -1.98 3 -3 3 C-3.33 4.32 -3.66 5.64 -4 7 C-5.32 6.67 -6.64 6.34 -8 6 C-5.54080489 3.3651481 -3.42227589 1.25483449 0 0 Z " fill="#1F3C83" transform="translate(184,142)"/>
<path d="M0 0 C0.99 0.33 1.98 0.66 3 1 C3 1.66 3 2.32 3 3 C4.65 2.67 6.3 2.34 8 2 C7 4 7 4 3.9375 5.125 C2.4834375 5.558125 2.4834375 5.558125 1 6 C1 5.34 1 4.68 1 4 C0.34 3.67 -0.32 3.34 -1 3 C-0.34 3 0.32 3 1 3 C0.67 2.01 0.34 1.02 0 0 Z " fill="#E2E2E2" transform="translate(296,54)"/>
<path d="M0 0 C0.33 0.66 0.66 1.32 1 2 C-0.32 3.65 -1.64 5.3 -3 7 C-3.99 6.67 -4.98 6.34 -6 6 C-4 4 -2 2 0 0 Z " fill="#D4E8F1" transform="translate(234,185)"/>
<path d="M0 0 C0.99 0 1.98 0 3 0 C3.99 2.97 4.98 5.94 6 9 C0.42857143 3.85714286 0.42857143 3.85714286 0 0 Z " fill="#164483" transform="translate(135,172)"/>
<path d="M0 0 C2.475 0.99 2.475 0.99 5 2 C3.6875 3.5 3.6875 3.5 2 5 C1.01 5 0.02 5 -1 5 C-1 2 -1 2 0 0 Z " fill="#1A1A1A" transform="translate(86,26)"/>
<path d="M0 0 C1.65 0.33 3.3 0.66 5 1 C4.67 1.99 4.34 2.98 4 4 C2.35 4.33 0.7 4.66 -1 5 C-0.67 3.35 -0.34 1.7 0 0 Z " fill="#EEEEEE" transform="translate(57,205)"/>
<path d="M0 0 C1.9375 0.8125 1.9375 0.8125 4 2 C4.33 2.99 4.66 3.98 5 5 C4.34 5.66 3.68 6.32 3 7 C0 5 0 5 -1 2 C-0.67 1.34 -0.34 0.68 0 0 Z " fill="#DEDEDE" transform="translate(286,192)"/>
<path d="M0 0 C0.99 0.33 1.98 0.66 3 1 C3 2.32 3 3.64 3 5 C1.35 4.67 -0.3 4.34 -2 4 C-1.34 2.68 -0.68 1.36 0 0 Z " fill="#F0F0F0" transform="translate(281,193)"/>
<path d="M0 0 C0.66 0.33 1.32 0.66 2 1 C-3.14285714 5.42857143 -3.14285714 5.42857143 -7 6 C-7 5.01 -7 4.02 -7 3 C-5.5459375 2.5359375 -5.5459375 2.5359375 -4.0625 2.0625 C-1.15934208 1.30476658 -1.15934208 1.30476658 0 0 Z " fill="#0D377A" transform="translate(233,184)"/>
<path d="M0 0 C0.99 0.33 1.98 0.66 3 1 C3.33 1.99 3.66 2.98 4 4 C2.02 4.99 2.02 4.99 0 6 C0 5.34 0 4.68 0 4 C-0.66 3.34 -1.32 2.68 -2 2 C-1.34 1.34 -0.68 0.68 0 0 Z " fill="#171717" transform="translate(57,182)"/>
<path d="M0 0 C0.763125 0.0825 1.52625 0.165 2.3125 0.25 C2.3125 1.24 2.3125 2.23 2.3125 3.25 C-0.3275 3.58 -2.9675 3.91 -5.6875 4.25 C-3.34903846 0.31153846 -3.34903846 0.31153846 0 0 Z " fill="#174C9E" transform="translate(233.6875,181.75)"/>
<path d="M0 0 C2 1 2 1 3.125 4.0625 C3.41375 5.031875 3.7025 6.00125 4 7 C3.01 7.495 3.01 7.495 2 8 C0.4375 5.6875 0.4375 5.6875 -1 3 C-0.67 2.01 -0.34 1.02 0 0 Z " fill="#111111" transform="translate(65,177)"/>
<path d="M0 0 C0.33 0.66 0.66 1.32 1 2 C-0.32 3.32 -1.64 4.64 -3 6 C-3.99 5.67 -4.98 5.34 -6 5 C-4.02 3.35 -2.04 1.7 0 0 Z " fill="#A93F4A" transform="translate(150,80)"/>
<path d="M0 0 C1.32 0.33 2.64 0.66 4 1 C3.67 1.99 3.34 2.98 3 4 C2.01 4.33 1.02 4.66 0 5 C-0.66 4.67 -1.32 4.34 -2 4 C-1.33333333 2.66666667 -0.66666667 1.33333333 0 0 Z " fill="#FBFBFB" transform="translate(98,61)"/>
</svg>
